<svg xmlns="http://www.w3.org/2000/svg" viewBox="0 0 27 27"><defs><style>.cls-1{fill:#62afae;}</style></defs><title>Asset 1</title><g id="Layer_2" data-name="Layer 2"><g id="Layer_1-2" data-name="Layer 1"><path class="cls-1" d="M13.5,0A13.5,13.5,0,1,0,27,13.5,13.5,13.5,0,0,0,13.5,0Zm0,24.89A11.39,11.39,0,1,1,24.89,13.5,11.39,11.39,0,0,1,13.5,24.89Z"/><path class="cls-1" d="M5.68,9.55H9.43a4.09,4.09,0,0,1,1.4.22,2.81,2.81,0,0,1,1,.62,2.43,2.43,0,0,1,.52.8,2.74,2.74,0,0,1,.18,1v0a2.72,2.72,0,0,1-.15.93,2.46,2.46,0,0,1-.41.73,2.51,2.51,0,0,1-.63.54,3.12,3.12,0,0,1-.81.34l2.27,3.18H11.07L9,15H7.16v2.93H5.68Zm3.64,4.16a2,2,0,0,0,1.26-.38,1.25,1.25,0,0,0,.47-1v0a1.23,1.23,0,0,0-.46-1,2,2,0,0,0-1.28-.35H7.16v2.82Z"/><path class="cls-1" d="M17.8,18.08a4.39,4.39,0,0,1-1.48-.23,3,3,0,0,1-1.13-.7A3.14,3.14,0,0,1,14.48,16a4.67,4.67,0,0,1-.25-1.6V9.55H15.7v4.79a2.56,2.56,0,0,0,.56,1.79,2,2,0,0,0,1.56.61,2,2,0,0,0,1.55-.59,2.44,2.44,0,0,0,.56-1.75V9.55h1.48v4.77A4.79,4.79,0,0,1,21.16,16a3.23,3.23,0,0,1-.73,1.18,3,3,0,0,1-1.13.71A4.48,4.48,0,0,1,17.8,18.08Z"/></g></g></svg>