<?xml version="1.0" encoding="utf-8"?>
<!-- Generator: Adobe Illustrator 21.1.0, SVG Export Plug-In . SVG Version: 6.00 Build 0)  -->
<svg version="1.1" xmlns="http://www.w3.org/2000/svg" xmlns:xlink="http://www.w3.org/1999/xlink" x="0px" y="0px"
	 viewBox="0 0 100 100" style="enable-background:new 0 0 100 100;" xml:space="preserve">
<style type="text/css">
	.st0{display:none;}
	.st1{display:inline;}
	.st2{fill:#DBDDDD;}
	.st3{fill:#62AFAE;}
</style>
<g id="Layer_1" class="st0">
	<g class="st1">
		<path d="M50.5,36.5C43,36.5,37,42.5,37,50s6,13.5,13.5,13.5S64,57.5,64,50S58,36.5,50.5,36.5z M50.5,61.4
			c-6.3,0-11.4-5.1-11.4-11.4s5.1-11.4,11.4-11.4c6.3,0,11.4,5.1,11.4,11.4S56.8,61.4,50.5,61.4z M44.6,51.3l1.7,1.7l4.2-4.2
			l4.2,4.2l1.7-1.7l-5.9-5.9L44.6,51.3z"/>
	</g>
</g>
<g id="Layer_2" class="st0">
	<g class="st1">
		<path d="M64,50c0-7.5-6-13.5-13.5-13.5S37,42.5,37,50s6,13.5,13.5,13.5S64,57.5,64,50z M39.1,50c0-6.3,5.1-11.4,11.4-11.4
			S61.9,43.7,61.9,50c0,6.3-5.1,11.4-11.4,11.4S39.1,56.3,39.1,50z M49.2,44.1l-1.7,1.7l4.2,4.2l-4.2,4.2l1.7,1.7l5.9-5.9L49.2,44.1
			z"/>
	</g>
</g>
<g id="Layer_11" class="st0">
	<g class="st1">
		<path d="M50.5,63.5C58,63.5,64,57.5,64,50s-6-13.5-13.5-13.5S37,42.5,37,50S43,63.5,50.5,63.5z M50.5,38.6
			c6.3,0,11.4,5.1,11.4,11.4s-5.1,11.4-11.4,11.4c-6.3,0-11.4-5.1-11.4-11.4S44.2,38.6,50.5,38.6z M56.4,48.7L54.7,47l-4.2,4.2
			L46.3,47l-1.7,1.7l5.9,5.9L56.4,48.7z"/>
	</g>
</g>
<g id="Layer_3" class="st0">
	<g class="st1">
		<path class="st2" d="M50.5,36.5C43,36.5,37,42.5,37,50s6,13.5,13.5,13.5S64,57.5,64,50S58,36.5,50.5,36.5z M50.5,61.4
			c-6.3,0-11.4-5.1-11.4-11.4s5.1-11.4,11.4-11.4c6.3,0,11.4,5.1,11.4,11.4S56.8,61.4,50.5,61.4z M44.6,51.3l1.7,1.7l4.2-4.2
			l4.2,4.2l1.7-1.7l-5.9-5.9L44.6,51.3z"/>
	</g>
</g>
<g id="Layer_4" class="st0">
	<g class="st1">
		<path class="st2" d="M64,50c0-7.5-6-13.5-13.5-13.5S37,42.5,37,50s6,13.5,13.5,13.5S64,57.5,64,50z M39.1,50
			c0-6.3,5.1-11.4,11.4-11.4S61.9,43.7,61.9,50c0,6.3-5.1,11.4-11.4,11.4S39.1,56.3,39.1,50z M49.2,44.1l-1.7,1.7l4.2,4.2l-4.2,4.2
			l1.7,1.7l5.9-5.9L49.2,44.1z"/>
	</g>
</g>
<g id="Layer_5" class="st0">
	<g class="st1">
		<path class="st2" d="M50.5,63.5C58,63.5,64,57.5,64,50s-6-13.5-13.5-13.5S37,42.5,37,50S43,63.5,50.5,63.5z M50.5,38.6
			c6.3,0,11.4,5.1,11.4,11.4s-5.1,11.4-11.4,11.4c-6.3,0-11.4-5.1-11.4-11.4S44.2,38.6,50.5,38.6z M56.4,48.7L54.7,47l-4.2,4.2
			L46.3,47l-1.7,1.7l5.9,5.9L56.4,48.7z"/>
	</g>
</g>
<g id="Layer_6" class="st0">
	<g class="st1">
		<path class="st3" d="M50.5,36.5C43,36.5,37,42.5,37,50s6,13.5,13.5,13.5S64,57.5,64,50S58,36.5,50.5,36.5z M50.5,61.4
			c-6.3,0-11.4-5.1-11.4-11.4s5.1-11.4,11.4-11.4c6.3,0,11.4,5.1,11.4,11.4S56.8,61.4,50.5,61.4z M44.6,51.3l1.7,1.7l4.2-4.2
			l4.2,4.2l1.7-1.7l-5.9-5.9L44.6,51.3z"/>
	</g>
</g>
<g id="Layer_7" class="st0">
	<g class="st1">
		<path class="st3" d="M64,50c0-7.5-6-13.5-13.5-13.5S37,42.5,37,50s6,13.5,13.5,13.5S64,57.5,64,50z M39.1,50
			c0-6.3,5.1-11.4,11.4-11.4S61.9,43.7,61.9,50c0,6.3-5.1,11.4-11.4,11.4S39.1,56.3,39.1,50z M49.2,44.1l-1.7,1.7l4.2,4.2l-4.2,4.2
			l1.7,1.7l5.9-5.9L49.2,44.1z"/>
	</g>
</g>
<g id="Layer_8" class="st0">
	<g class="st1">
		<path class="st3" d="M50.5,63.5C58,63.5,64,57.5,64,50s-6-13.5-13.5-13.5S37,42.5,37,50S43,63.5,50.5,63.5z M50.5,38.6
			c6.3,0,11.4,5.1,11.4,11.4s-5.1,11.4-11.4,11.4c-6.3,0-11.4-5.1-11.4-11.4S44.2,38.6,50.5,38.6z M56.4,48.7L54.7,47l-4.2,4.2
			L46.3,47l-1.7,1.7l5.9,5.9L56.4,48.7z"/>
	</g>
</g>
<g id="Layer_9" class="st0">
	<g class="st1">
		<path class="st3" d="M54.4,55.2c0.3-0.1,0.5-0.3,0.6-0.4c0.2-0.1,0.3-0.2,0.3-0.3c0.2-0.3,0.1-0.8-0.2-1.5c-0.3-0.7-0.6-1.1-1-1.3
			c-0.1-0.1-0.3-0.1-0.5-0.1c-0.2,0-0.5,0.2-0.9,0.4c0.5,0.4,0.8,0.9,1.1,1.5C54.1,54,54.3,54.6,54.4,55.2z M48.9,46.3
			c0.2-0.2,0.4-0.4,0.5-0.5c0.1-0.1,0.2-0.3,0.3-0.4c0.1-0.3,0-0.6-0.3-1.1c-0.3-0.5-0.7-0.9-1.2-1.2C47.9,43,47.6,43,47.4,43
			c-0.2,0.1-0.6,0.3-1,0.6c0.6,0.3,1.1,0.8,1.5,1.2C48.3,45.3,48.7,45.8,48.9,46.3z M53.7,55.7c0.1-0.1,0.2-0.1,0.2-0.2
			c0.1-0.1,0.1-0.3,0-0.7c-0.1-0.3-0.2-0.7-0.4-1.1c-0.1-0.3-0.3-0.7-0.6-1c-0.2-0.3-0.4-0.5-0.5-0.5c-0.1,0-0.2,0-0.5,0
			c-0.3,0-0.5,0-0.7-0.1c-0.3-0.1-0.5-0.4-0.9-0.8c-0.3-0.4-0.7-0.9-1.1-1.5c-0.5-0.7-0.8-1.2-0.9-1.6c-0.1-0.3-0.2-0.6-0.2-0.9
			c0-0.1,0-0.1,0.1-0.3c0.2-0.4,0.1-0.7,0-1.1c-0.2-0.3-0.5-0.7-0.8-1c-0.4-0.4-0.7-0.6-1-0.8C46.2,44.1,46,44,45.9,44
			c-0.1,0-0.3,0.2-0.4,0.4c-0.2,0.4-0.4,0.7-0.5,1c-0.1,0.3-0.1,0.6-0.1,0.8c0,0.2,0.2,0.7,0.5,1.3c0.3,0.7,0.6,1.4,1,2.1
			c0.7,1.4,1.6,2.6,2.6,3.8c1,1.2,1.8,2,2.5,2.3c0.1,0.1,0.3,0.1,0.4,0.1C52.1,56,53.6,55.8,53.7,55.7z"/>
	</g>
	<g class="st1">
		<path class="st3" d="M50.5,36.5C43,36.5,37,42.5,37,50s6,13.5,13.5,13.5S64,57.5,64,50S58,36.5,50.5,36.5z M50.5,61.4
			c-6.3,0-11.4-5.1-11.4-11.4s5.1-11.4,11.4-11.4c6.3,0,11.4,5.1,11.4,11.4S56.8,61.4,50.5,61.4z"/>
	</g>
</g>
<g id="Layer_10">
	<g>
		<path class="st3" d="M49.7,36.3c-7.5,0-13.5,6-13.5,13.5s6,13.5,13.5,13.5s13.5-6,13.5-13.5S57.2,36.3,49.7,36.3z M49.7,61.2
			c-6.3,0-11.4-5.1-11.4-11.4s5.1-11.4,11.4-11.4c6.3,0,11.4,5.1,11.4,11.4S56,61.2,49.7,61.2z"/>
	</g>
	<g>
		<path class="st3" d="M41.9,45.8h3.7c0.5,0,1,0.1,1.4,0.2c0.4,0.1,0.7,0.4,1,0.6c0.2,0.2,0.4,0.5,0.5,0.8c0.1,0.3,0.2,0.6,0.2,1v0
			c0,0.3,0,0.7-0.1,0.9c-0.1,0.3-0.2,0.5-0.4,0.7c-0.2,0.2-0.4,0.4-0.6,0.5S47,51,46.7,51l2.3,3.2h-1.7l-2.1-2.9h-1.8v2.9h-1.5V45.8
			z M45.5,50c0.5,0,0.9-0.1,1.3-0.4s0.5-0.6,0.5-1v0c0-0.5-0.2-0.8-0.5-1c-0.3-0.2-0.7-0.4-1.3-0.4h-2.1V50H45.5z"/>
		<path class="st3" d="M54,54.4c-0.5,0-1-0.1-1.5-0.2s-0.8-0.4-1.1-0.7c-0.3-0.3-0.6-0.7-0.7-1.2c-0.2-0.5-0.3-1-0.3-1.6v-4.8h1.5
			v4.8c0,0.8,0.2,1.4,0.6,1.8S53.4,53,54,53c0.7,0,1.2-0.2,1.5-0.6c0.4-0.4,0.6-1,0.6-1.8v-4.8h1.5v4.8c0,0.6-0.1,1.2-0.3,1.6
			c-0.2,0.5-0.4,0.9-0.7,1.2c-0.3,0.3-0.7,0.6-1.1,0.7S54.6,54.4,54,54.4z"/>
	</g>
</g>
</svg>
