<svg xmlns="http://www.w3.org/2000/svg" viewBox="0 0 549.53 112"><defs><style>.cls-1{fill:#43405c;}.cls-2{fill:#3d345a;stroke:#3d345a;stroke-miterlimit:10;stroke-width:2px;}.cls-3{fill:#00b1af;}.cls-4{fill:#19aba8;}</style></defs><title>Asset log</title><g id="Layer_2" data-name="Layer 2"><g id="svg2"><g id="g10"><g id="g12"><g id="g14"><g id="g20"><path id="path22" class="cls-1" d="M112.43,24.53h-4.12l-8.74-7.81a4.61,4.61,0,0,1-.62-.64h-.08v8.45h-3V7.35h3v8.09H99a7.87,7.87,0,0,1,.62-.63L108,7.35h3.71L102,15.59Z"/></g><g id="g24"><path id="path26" class="cls-1" d="M136.25,24.53h-2.93V9.37h-9.38v9.12a16.81,16.81,0,0,1-.29,3.53,3.28,3.28,0,0,1-1.37,2,4.6,4.6,0,0,1-2.68.74,11,11,0,0,1-2.31-.27l.5-2a4.22,4.22,0,0,0,1.23.23,1.77,1.77,0,0,0,1.53-.64,4.31,4.31,0,0,0,.47-2.39V7.35h15.23Z"/></g><g id="g28"><path id="path30" class="cls-1" d="M163.11,24.53h-2.7V10.68L148.7,24.53h-2.94V7.35h2.7V21.24L160.15,7.35h3Z"/></g><g id="g32"><path id="path34" class="cls-1" d="M189.92,24.53H187V16.45H175.54v8.09h-2.91V7.35h2.91v7.05H187V7.35h2.93Z"/></g><g id="g36"><path id="path38" class="cls-1" d="M216.78,24.53h-2.7V10.68l-11.7,13.85h-2.94V7.35h2.7V21.24L213.82,7.35h3Z"/></g><g id="g40"><path id="path42" class="cls-1" d="M243.39,24.53h-4.12l-8.74-7.81a4.61,4.61,0,0,1-.62-.64h-.08v8.45h-3V7.35h3v8.09h.08a7.87,7.87,0,0,1,.62-.63L239,7.35h3.71l-9.77,8.24Z"/></g><g id="g44"><path id="path46" class="cls-1" d="M261.77,17.5q-2.7-5.58-3.05-6.33a21.1,21.1,0,0,1-.77-2h-.07a16.52,16.52,0,0,1-1.13,3.21l-2.46,5.14Zm6.76,7h-3.29l-2.58-5.23h-9.19L251,24.53h-3.08l8.46-17.18h3.14Z"/></g><g id="g48"><path id="path50" class="cls-1" d="M306.06,24.53h-2.93V9.37H291.66V24.53h-2.91V7.35h17.32Z"/></g><g id="g52"><path id="path54" class="cls-1" d="M318.43,15.53h5.66q5.2,0,5.2-3.14a2.71,2.71,0,0,0-.68-1.82,2.85,2.85,0,0,0-1.66-1A16.34,16.34,0,0,0,324,9.39h-5.6Zm-2.92-8.18h8.31a32.43,32.43,0,0,1,3.39.15,7.29,7.29,0,0,1,2.64.79A4.4,4.4,0,0,1,331.69,10a4.56,4.56,0,0,1,.62,2.29,4.5,4.5,0,0,1-2,3.81q-2,1.43-6.29,1.43h-5.63v7h-2.92Z"/></g><g id="g56"><path id="path58" class="cls-1" d="M350.26,22.88a7.93,7.93,0,0,0,5.43-1.83,6.46,6.46,0,0,0,2.1-5.09,6.4,6.4,0,0,0-2.13-5.16A8,8,0,0,0,350.32,9a8.23,8.23,0,0,0-5.44,1.77q-2.13,1.77-2.13,5.43A6.15,6.15,0,0,0,344.83,21a7.89,7.89,0,0,0,5.42,1.85m0-15.82a11.44,11.44,0,0,1,7.57,2.45A8,8,0,0,1,360.8,16a7.9,7.9,0,0,1-3,6.43,11.51,11.51,0,0,1-7.56,2.43,11.27,11.27,0,0,1-7.66-2.52,7.85,7.85,0,0,1-2.9-6.15,8.19,8.19,0,0,1,2.94-6.66,11.57,11.57,0,0,1,7.62-2.43"/></g><g id="g60"><path id="path62" class="cls-1" d="M372.21,22.59h6.19a5.78,5.78,0,0,0,3.25-.76,2.49,2.49,0,0,0,1.12-2.19,2.46,2.46,0,0,0-1.19-2.23q-1.19-.75-5.06-.75h-4.31Zm0-7.95h5.69q4.4,0,6.2,1.42a4.28,4.28,0,0,1,1.8,3.48,4.54,4.54,0,0,1-1.7,3.49q-1.7,1.51-6,1.51h-8.93V7.35h14.27v2H372.21Z"/></g><g id="g64"><path id="path66" class="cls-1" d="M410.82,24.53h-2.93V9.37h-9.38v9.12a16.81,16.81,0,0,1-.29,3.53,3.28,3.28,0,0,1-1.37,2,4.6,4.6,0,0,1-2.68.74,11,11,0,0,1-2.31-.27l.49-2a4.24,4.24,0,0,0,1.23.23,1.77,1.77,0,0,0,1.53-.64,4.31,4.31,0,0,0,.47-2.39V7.35h15.23Z"/></g><g id="g68"><path id="path70" class="cls-1" d="M436.78,24.53H420.33V7.35h15.94v2h-13v5.25h12.18v2H423.25v5.81h13.53Z"/></g><g id="g72"><path id="path74" class="cls-1" d="M466.32,24.53h-2.76V10.15h-.06l-6.34,14.38h-2.61L448.24,9.92h-.09V24.53h-2.76V7.35h4.36L455,19.52a26.9,26.9,0,0,1,1,2.54H456q.41-1,1.17-2.75l5.26-12h3.88Z"/></g><g id="g76"><path id="path78" class="cls-1" d="M112.93,53H110V37.88H98.53V53H95.61V35.86h17.32Z"/></g><g id="g80"><path id="path82" class="cls-1" d="M139.24,53h-2.93V37.88h-9.38V47a16.79,16.79,0,0,1-.29,3.53,3.28,3.28,0,0,1-1.37,2,4.6,4.6,0,0,1-2.68.74,11,11,0,0,1-2.31-.27l.5-2a4.22,4.22,0,0,0,1.23.23,1.77,1.77,0,0,0,1.53-.64,4.32,4.32,0,0,0,.47-2.39V35.86h15.23Z"/></g><g id="g84"><path id="path86" class="cls-1" d="M160.12,46q-2.7-5.58-3.05-6.33a21.05,21.05,0,0,1-.77-2h-.07a16.52,16.52,0,0,1-1.13,3.21L152.63,46Zm6.76,7h-3.29L161,47.82h-9.19L149.37,53h-3.08l8.46-17.18h3.14Z"/></g><g id="g88"><path id="path90" class="cls-1" d="M191.22,53h-2.93V45H176.84V53h-2.91V35.86h2.91v7.05h11.45V35.86h2.93Z"/></g><g id="g92"><path id="path94" class="cls-1" d="M218.08,53h-2.7V39.19L203.67,53h-2.94V35.86h2.7V49.75l11.69-13.89h3Z"/></g><g id="g96"><path id="path98" class="cls-1" d="M230.42,44h5.66q5.2,0,5.2-3.14a2.72,2.72,0,0,0-.68-1.82,2.86,2.86,0,0,0-1.66-1A16.36,16.36,0,0,0,236,37.9h-5.6Zm-2.91-8.18h8.31a32.41,32.41,0,0,1,3.39.15,7.32,7.32,0,0,1,2.64.79,4.42,4.42,0,0,1,1.84,1.73,4.58,4.58,0,0,1,.62,2.29,4.5,4.5,0,0,1-2,3.81q-2,1.44-6.29,1.44h-5.63v7h-2.91Z"/></g><g id="g100"><path id="path102" class="cls-1" d="M262.24,51.39a7.93,7.93,0,0,0,5.43-1.83,6.46,6.46,0,0,0,2.1-5.09,6.4,6.4,0,0,0-2.13-5.16,8,8,0,0,0-5.34-1.8,8.23,8.23,0,0,0-5.44,1.77q-2.13,1.77-2.13,5.43a6.14,6.14,0,0,0,2.09,4.83,7.89,7.89,0,0,0,5.42,1.85m0-15.82A11.44,11.44,0,0,1,269.84,38a8,8,0,0,1,2.95,6.46,7.91,7.91,0,0,1-3,6.43,11.51,11.51,0,0,1-7.56,2.43,11.26,11.26,0,0,1-7.66-2.52,7.85,7.85,0,0,1-2.9-6.15A8.19,8.19,0,0,1,254.65,38a11.56,11.56,0,0,1,7.62-2.43"/></g><g id="g104"><path id="path106" class="cls-1" d="M284,51h5.48a7.64,7.64,0,0,0,4.09-.79A2.48,2.48,0,0,0,294.73,48a2.45,2.45,0,0,0-1.22-2.17,8.76,8.76,0,0,0-4.39-.78H284Zm0-7.94h4.78a19.68,19.68,0,0,0,2.47-.13,3.8,3.8,0,0,0,1.77-.68,2,2,0,0,0,.77-1.71,2.1,2.1,0,0,0-.77-1.8,3.78,3.78,0,0,0-1.85-.71,24.12,24.12,0,0,0-2.76-.13H284Zm9.6.84a6,6,0,0,1,3.1,1.6,3.63,3.63,0,0,1,1,2.55,4.23,4.23,0,0,1-.93,2.65,5.36,5.36,0,0,1-2.64,1.78,15.24,15.24,0,0,1-4.64.57H281.1V35.86h8.26q4,0,5.66,1.36a3.91,3.91,0,0,1,1.65,3,3.27,3.27,0,0,1-.76,2.08,5.47,5.47,0,0,1-2.29,1.58"/></g><g id="g108"><path id="path110" class="cls-1" d="M317.75,46q-2.7-5.58-3.05-6.33a21.05,21.05,0,0,1-.77-2h-.07a16.52,16.52,0,0,1-1.13,3.21L310.26,46Zm6.76,7h-3.29l-2.58-5.22h-9.19L307,53h-3.08l8.46-17.18h3.14Z"/></g><g id="g112"><path id="path114" class="cls-1" d="M348.85,53h-2.93V45H334.47V53h-2.91V35.86h2.91v7.05h11.45V35.86h2.93Z"/></g><g id="g116"><path id="path118" class="cls-1" d="M375.71,53H373V39.19L361.3,53h-2.95V35.86h2.71V49.75l11.69-13.89h3Z"/></g><g id="g120"><path id="path122" class="cls-1" d="M399.59,43.42V37.75h-7a6.76,6.76,0,0,0-3.49.74,2.31,2.31,0,0,0-1.21,2.07,2.28,2.28,0,0,0,.74,1.68,3.57,3.57,0,0,0,1.81,1,14.4,14.4,0,0,0,2.88.23ZM402.52,53h-2.93v-7.6h-3.35a7.93,7.93,0,0,0-2.37.29,4.9,4.9,0,0,0-1.77,1.08,26.5,26.5,0,0,0-2.37,2.6l-3,3.63h-3.65q4-4.8,4.53-5.48a8,8,0,0,1,1.49-1.31,9,9,0,0,1,2-1,9.24,9.24,0,0,1-4.62-1.55,3.77,3.77,0,0,1-1.57-3.13,3.93,3.93,0,0,1,.65-2.22,4.62,4.62,0,0,1,1.75-1.56,6.85,6.85,0,0,1,2.31-.74,25.28,25.28,0,0,1,3.15-.16h9.75Z"/></g><g id="g124"><path id="path126" class="cls-1" d="M443.78,47.59a7.6,7.6,0,0,1-3.36,4.32,11,11,0,0,1-5.75,1.42q-5.41,0-7.88-2.64a9,9,0,0,1-2.47-6.36,7.79,7.79,0,0,1,2.91-6.44,11.58,11.58,0,0,1,7.47-2.33,11.11,11.11,0,0,1,5.5,1.28,6.92,6.92,0,0,1,3.2,3.74l-2.85.53a5.41,5.41,0,0,0-2.19-2.7,6.94,6.94,0,0,0-3.68-.9,7.46,7.46,0,0,0-5.47,1.85,6.66,6.66,0,0,0-1.86,5q0,3.59,2,5.33a8.48,8.48,0,0,0,9.31.65A5.74,5.74,0,0,0,440.88,47Z"/></g><g id="g128"><path id="path130" class="cls-1" d="M468.48,53H452V35.86H468v2h-13v5.25h12.18v2H454.94V51h13.53Z"/></g><g id="g132"><path id="path134" class="cls-1" d="M498,53h-2.76V38.66h-.06L488.86,53h-2.61l-6.31-14.61h-.09V53h-2.76V35.86h4.36L486.65,48a26.94,26.94,0,0,1,1,2.54h.06q.41-1,1.17-2.75l5.26-12H498Z"/></g><g id="g136"><path id="path138" class="cls-1" d="M510.36,51.09h5.33A20,20,0,0,0,517.8,51a4.56,4.56,0,0,0,1.55-.48,2.87,2.87,0,0,0,1.16-1,2.63,2.63,0,0,0,.4-1.45,2.4,2.4,0,0,0-1.22-2.19q-1.22-.74-5-.74h-4.37Zm0-7.9H516q4.6,0,6.32,1.42A4.31,4.31,0,0,1,524.06,48a4.08,4.08,0,0,1-1.15,2.88,5.8,5.8,0,0,1-2.82,1.67,17.24,17.24,0,0,1-4.27.44h-8.37V35.86h2.92Z"/></g><g id="g140"><path id="path142" class="cls-1" d="M549.53,53h-2.7V39.19L535.12,53h-2.95V35.86h2.71V49.75l11.69-13.89h3Z"/></g><g id="g144"><path id="path146" class="cls-2" d="M95.61,72.17H547.89"/></g><g id="g148"><path id="path150" class="cls-3" d="M46.15,20.41c-.39.66-3,4.47-3.65,4.45-.49,0-.65-.76-.64-1,0-1.37,1.32-2.81,1.86-3.39A12,12,0,0,0,45.29,19c.47-.63.36-1.4,1-1.35.29,0,.28,2-.13,2.75m-2.1,68.95c-.11,2.5-.27,4.87-1.36,6.25a6,6,0,0,0-.52,1.2c0,.71-.38.92-.38.92A2.78,2.78,0,0,1,41,97a4.5,4.5,0,0,1-.3-1c-.28-.68-1.08-1-1.08-2a10,10,0,0,1,.2-4,13.73,13.73,0,0,0,0-7.56c-.85-2.56-1.92-4.89-2.15-6.54a10.94,10.94,0,0,1,.51-4.49,27,27,0,0,0,1.25-4.22c.06-1,.34-4.49.34-4.95a45.25,45.25,0,0,1,2.82-4.94c.11-.17,1.11,1.56,1,2.41-.13,1.53-.38,5.05.48,7.24a16,16,0,0,1,.85,3.94c.76,2.37-2.47,6.19-2.43,9.28,0,2.5,1.69,6.66,1.58,9.16M39.7,40.05c.64-1.59,2.7-4.81,2.78-5s1.5,6,1.65,6.76a26.85,26.85,0,0,1,.5,3.11A3,3,0,0,1,43.52,47c-.9.65-1.68.83-2.12,1.69a5.69,5.69,0,0,1-1.77-1.25,5,5,0,0,1-1-2.78,15.38,15.38,0,0,1,1.05-4.56m18.24,62.12s.2-1.34-.55-1.65-6.6-1.55-7.58-5.3a9.46,9.46,0,0,1,.47-4.83,25.89,25.89,0,0,0,1.91-6.6c.34-3.16.19-3.45.31-4.62.16-1.52,1.06-2,1.33-3.46a9,9,0,0,1,.52-2.54c.46-1.11,3.07-6.35,3.52-9.6.55-4-.48-3.42-.4-4.59.18-2.74,1.68-1.23,1.63-3.84.55-.84.73-1.47.55-3.26-.14-1.43-2.21-2.31-2.21-4.06,0-2.67,1.56-4.2,1.54-5.59a22.2,22.2,0,0,1-.14-3.2c.15-1,2.27-2.74,2.08-6.53a11.89,11.89,0,0,0-6-9.73c-1.72-.91-2.24-2-2.17-3.27s.15-2.33.72-2.85,2.33-1.21,2.42-2c.21-2-.89-5.63-2.49-8.74-1-1.87-1.67-3.21-4.51-3.28a7.63,7.63,0,0,0-3.85,1,4.88,4.88,0,0,0-2.69,4,4.22,4.22,0,0,0,.53,2.62,5.3,5.3,0,0,1,0,1.14s-4-1.46-7.91,4.72c-3,4.72.77,5.55,1.7,7,.28.44,1.08,2.67-.36,4s-4.22,2.34-5.41,3-3.42,1.68-3.72,3.18c0,0-.31.16-.31.18a1.17,1.17,0,0,0,0,.65s.29.11.3.16A3.32,3.32,0,0,0,29,37.2c.69.38,0,.65,0,.65s-9.15,1.27-9.94,9.8c-.72,7.67,7.57,9,7.57,9a24.52,24.52,0,0,0-.34,10.78A40.4,40.4,0,0,0,28.76,75c.46,1-.11,1.61.36,2.8.71,1.81,1.62,1.89,2.29,4.22.19.66.5,2.32,1.13,4.69s2.61,4.57,2.44,8a7.57,7.57,0,0,1-7.16,6.48c-1,0-.61,1-.61,1H20.84l1.9,1.59H62.2l1.91-1.62Z"/></g><g id="g152"><path id="path154" class="cls-3" d="M40.89,110.92C19.68,110.92,2.48,86.33,2.48,56S19.68,1.08,40.89,1.08,79.29,25.67,79.29,56s-17.19,54.92-38.4,54.92M40.89,0C18.31,0,0,25.07,0,56s18.31,56,40.89,56S81.78,86.93,81.78,56,63.47,0,40.89,0"/></g><g id="g156"><path id="path158" class="cls-4" d="M108.62,92.63V106.8h-1.78v-6.45H99.08v6.45H97.3V92.63h1.79v6.13h7.75V92.63Z"/></g><g id="g160"><path id="path162" class="cls-4" d="M118.9,105.29a4,4,0,0,0,2-.48,3.78,3.78,0,0,0,1.3-1.25,5.17,5.17,0,0,0,.68-1.75,10.19,10.19,0,0,0,.2-2V92.64h1.79V99.8a11.06,11.06,0,0,1-.33,2.72,6.54,6.54,0,0,1-1,2.27,5,5,0,0,1-1.85,1.55,7,7,0,0,1-5.6,0,5.15,5.15,0,0,1-1.85-1.59,6.46,6.46,0,0,1-1-2.27,11.32,11.32,0,0,1-.31-2.64V92.64h1.79V99.8a9.9,9.9,0,0,0,.21,2,5.21,5.21,0,0,0,.69,1.75,3.77,3.77,0,0,0,1.29,1.23,3.94,3.94,0,0,0,2,.47"/></g><g id="g164"><path id="path166" class="cls-4" d="M141.38,106.8v-11l-4.68,8.4h-1l-4.7-8.4v11H129.2V92.63h1.88l5.1,9.2,5.11-9.2h1.86V106.8Z"/></g><g id="g168"><path id="path170" class="cls-4" d="M155.13,101.26l-2.54-6.55L150,101.26Zm-3.29-8.62h1.51l5.75,14.17h-1.9l-1.67-4.15h-5.91L148,106.8h-1.9Z"/></g><g id="g172"><path id="path174" class="cls-4" d="M163.79,96V106.8H162V92.63h1.39l8.73,11v-11h1.78V106.8h-1.51Z"/></g><g id="g176"><path id="path178" class="cls-4" d="M186.45,100.12h4.26a2.08,2.08,0,0,0,1-.24,2.37,2.37,0,0,0,.76-.65,3.11,3.11,0,0,0,.5-.95,3.54,3.54,0,0,0,.18-1.12,3.05,3.05,0,0,0-.21-1.13,3.32,3.32,0,0,0-.56-.94,2.52,2.52,0,0,0-.81-.64,2.21,2.21,0,0,0-1-.23h-4.14Zm-1.78,6.69V92.64h6a3.78,3.78,0,0,1,1.71.39,4.29,4.29,0,0,1,1.35,1,5,5,0,0,1,.88,1.46,4.46,4.46,0,0,1,.32,1.65,4.9,4.9,0,0,1-.21,1.43,4.44,4.44,0,0,1-.59,1.25,4,4,0,0,1-.93,1,3.6,3.6,0,0,1-1.22.58l3.41,5.43h-2l-3.21-5.09h-3.73v5.09Z"/></g><g id="g180"><path id="path182" class="cls-4" d="M208.34,105.21v1.6h-9.56V92.63h9.38v1.6h-7.59v4.59h6.6v1.5h-6.6v4.89Z"/></g><g id="g184"><path id="path186" class="cls-4" d="M213.41,100.12h4.11a2.16,2.16,0,0,0,1-.23,2.26,2.26,0,0,0,.76-.64,3.16,3.16,0,0,0,.5-.95,3.62,3.62,0,0,0,.18-1.14,3.19,3.19,0,0,0-.21-1.16,3.13,3.13,0,0,0-.56-.94,2.46,2.46,0,0,0-.81-.62,2.29,2.29,0,0,0-1-.22h-4Zm-1.78,6.69V92.64h5.87a3.78,3.78,0,0,1,1.71.39,4.29,4.29,0,0,1,1.35,1,4.92,4.92,0,0,1,.88,1.46,4.46,4.46,0,0,1,.32,1.65,4.92,4.92,0,0,1-.3,1.7,4.65,4.65,0,0,1-.84,1.46,4.08,4.08,0,0,1-1.31,1,3.73,3.73,0,0,1-1.69.38h-4.2v5.09Z"/></g><g id="g188"><path id="path190" class="cls-4" d="M226.72,100.12H231a2.08,2.08,0,0,0,1-.24,2.37,2.37,0,0,0,.76-.65,3.11,3.11,0,0,0,.5-.95,3.54,3.54,0,0,0,.18-1.12,3.05,3.05,0,0,0-.21-1.13,3.32,3.32,0,0,0-.56-.94,2.52,2.52,0,0,0-.81-.64,2.21,2.21,0,0,0-1-.23h-4.14Zm-1.78,6.69V92.64h6a3.78,3.78,0,0,1,1.71.39,4.29,4.29,0,0,1,1.35,1,5,5,0,0,1,.88,1.46,4.46,4.46,0,0,1,.32,1.65,4.9,4.9,0,0,1-.21,1.43,4.44,4.44,0,0,1-.59,1.25,4,4,0,0,1-.93,1,3.6,3.6,0,0,1-1.22.58l3.41,5.43h-2l-3.21-5.09h-3.73v5.09Z"/></g><g id="g192"><path id="path194" class="cls-4" d="M239.82,99.72a6.34,6.34,0,0,0,.35,2.09,5.77,5.77,0,0,0,1,1.79,4.73,4.73,0,0,0,1.53,1.24,4.25,4.25,0,0,0,2,.46,4.15,4.15,0,0,0,2-.49,5,5,0,0,0,1.52-1.28,5.72,5.72,0,0,0,1-1.79,6.42,6.42,0,0,0,.33-2,6.34,6.34,0,0,0-.35-2.09,5.51,5.51,0,0,0-1-1.78,5,5,0,0,0-1.53-1.23,4.45,4.45,0,0,0-4,0,4.88,4.88,0,0,0-1.52,1.26,5.79,5.79,0,0,0-1,1.78,6.35,6.35,0,0,0-.34,2m4.82,7.19a6,6,0,0,1-2.71-.61,6.68,6.68,0,0,1-2.09-1.62,7.33,7.33,0,0,1-1.35-2.31,7.67,7.67,0,0,1-.48-2.65,7.56,7.56,0,0,1,1.9-5A6.75,6.75,0,0,1,242,93.12a6,6,0,0,1,2.65-.59,5.76,5.76,0,0,1,2.7.63,6.93,6.93,0,0,1,2.08,1.65,7.68,7.68,0,0,1,1.82,4.93,7.55,7.55,0,0,1-1.89,5,6.7,6.7,0,0,1-2.1,1.57,6,6,0,0,1-2.65.59"/></g><g id="g196"><path id="path198" class="cls-4" d="M264.78,99.7a7.08,7.08,0,0,0-.33-2.2,4.73,4.73,0,0,0-1-1.73,4.53,4.53,0,0,0-1.58-1.13,5.25,5.25,0,0,0-2.12-.41h-3.09v11h3.09a5.23,5.23,0,0,0,2.15-.42,4.32,4.32,0,0,0,1.57-1.16,5.1,5.1,0,0,0,1-1.75,7,7,0,0,0,.33-2.19m-9.87,7.11V92.63h4.88a7.36,7.36,0,0,1,3,.56,6,6,0,0,1,2.13,1.52A6.34,6.34,0,0,1,266.16,97a8.68,8.68,0,0,1,.43,2.74,8.52,8.52,0,0,1-.48,2.92,6.29,6.29,0,0,1-1.37,2.24,6.11,6.11,0,0,1-2.15,1.44,7.41,7.41,0,0,1-2.81.51Z"/></g><g id="g200"><path id="path202" class="cls-4" d="M276,105.29a4,4,0,0,0,2-.48,3.77,3.77,0,0,0,1.3-1.25,5.17,5.17,0,0,0,.69-1.75,10.29,10.29,0,0,0,.2-2V92.64H282V99.8a11,11,0,0,1-.33,2.72,6.52,6.52,0,0,1-1,2.27,5,5,0,0,1-1.85,1.55,7,7,0,0,1-5.6,0,5.16,5.16,0,0,1-1.85-1.59,6.46,6.46,0,0,1-1-2.27A11.32,11.32,0,0,1,270,99.8V92.64h1.79V99.8a9.9,9.9,0,0,0,.21,2,5.21,5.21,0,0,0,.69,1.75,3.74,3.74,0,0,0,1.29,1.23,3.93,3.93,0,0,0,2,.47"/></g><g id="g204"><path id="path206" class="cls-4" d="M285.35,99.62a7.58,7.58,0,0,1,.45-2.54,7.08,7.08,0,0,1,1.31-2.27,6.6,6.6,0,0,1,2.11-1.63,6.31,6.31,0,0,1,2.83-.62,5.9,5.9,0,0,1,3.23.86,5.33,5.33,0,0,1,2,2.23l-1.41.92a4.14,4.14,0,0,0-.76-1.14,4,4,0,0,0-1-.74,4.13,4.13,0,0,0-1.08-.4,5.06,5.06,0,0,0-1.09-.12,4.29,4.29,0,0,0-2.07.49,4.84,4.84,0,0,0-1.52,1.28,5.55,5.55,0,0,0-.92,1.78,6.65,6.65,0,0,0-.31,2,6.15,6.15,0,0,0,.37,2.13,5.85,5.85,0,0,0,1,1.79,5,5,0,0,0,1.55,1.24,4.19,4.19,0,0,0,1.94.46,4.9,4.9,0,0,0,1.14-.14,4.12,4.12,0,0,0,1.12-.45,4.69,4.69,0,0,0,1-.78,3.8,3.8,0,0,0,.76-1.13l1.49.82a4.38,4.38,0,0,1-.94,1.41,6,6,0,0,1-1.37,1,6.92,6.92,0,0,1-1.62.64,6.59,6.59,0,0,1-1.67.22,5.59,5.59,0,0,1-2.66-.64,7,7,0,0,1-2.09-1.67,7.78,7.78,0,0,1-1.85-5"/></g><g id="g208"><path id="path210" class="cls-4" d="M310.92,94.23h-4.86V106.8h-1.78V94.23h-4.86v-1.6h11.5Z"/></g><path id="path212" class="cls-4" d="M313.89,92.63h1.79V106.8h-1.79Z"/><g id="g214"><path id="path216" class="cls-4" d="M321.1,99.72a6.37,6.37,0,0,0,.35,2.09,5.77,5.77,0,0,0,1,1.79,4.73,4.73,0,0,0,1.53,1.24,4.26,4.26,0,0,0,2,.46,4.15,4.15,0,0,0,2-.49,5,5,0,0,0,1.52-1.28,5.7,5.7,0,0,0,1-1.79,6.42,6.42,0,0,0,0-4.1,5.49,5.49,0,0,0-1-1.78,5,5,0,0,0-1.53-1.23,4.45,4.45,0,0,0-4,0,4.87,4.87,0,0,0-1.52,1.26,5.73,5.73,0,0,0-1,1.78,6.31,6.31,0,0,0-.34,2m4.82,7.19a6,6,0,0,1-2.71-.61,6.67,6.67,0,0,1-2.09-1.62,7.33,7.33,0,0,1-1.35-2.31,7.67,7.67,0,0,1-.48-2.65A7.4,7.4,0,0,1,319.8,97a7.49,7.49,0,0,1,1.4-2.29,6.75,6.75,0,0,1,2.11-1.59,6,6,0,0,1,2.65-.59,5.76,5.76,0,0,1,2.7.63,6.93,6.93,0,0,1,2.08,1.65,7.68,7.68,0,0,1,1.82,4.93,7.4,7.4,0,0,1-.51,2.71,7.51,7.51,0,0,1-1.39,2.29,6.71,6.71,0,0,1-2.1,1.57,6,6,0,0,1-2.65.59"/></g><g id="g218"><path id="path220" class="cls-4" d="M338,96V106.8h-1.79V92.63h1.39l8.73,11v-11h1.79V106.8h-1.51Z"/></g><g id="g222"><path id="path224" class="cls-4" d="M360.64,100.12h4.1a2.16,2.16,0,0,0,1-.23,2.27,2.27,0,0,0,.76-.64,3.16,3.16,0,0,0,.5-.95,3.62,3.62,0,0,0,.18-1.14A3.22,3.22,0,0,0,367,96a3.13,3.13,0,0,0-.56-.94,2.46,2.46,0,0,0-.81-.62,2.3,2.3,0,0,0-1-.22h-4Zm-1.79,6.69V92.64h5.87a3.79,3.79,0,0,1,1.72.39,4.3,4.3,0,0,1,1.35,1,5,5,0,0,1,.88,1.46,4.46,4.46,0,0,1,.32,1.65,4.92,4.92,0,0,1-.3,1.7,4.65,4.65,0,0,1-.84,1.46,4.09,4.09,0,0,1-1.31,1,3.74,3.74,0,0,1-1.7.38h-4.2v5.09Z"/></g><g id="g226"><path id="path228" class="cls-4" d="M373.94,100.12h4.26a2.07,2.07,0,0,0,1-.24,2.36,2.36,0,0,0,.76-.65,3.11,3.11,0,0,0,.5-.95,3.54,3.54,0,0,0,.18-1.12,3.05,3.05,0,0,0-.21-1.13,3.29,3.29,0,0,0-.56-.94,2.53,2.53,0,0,0-.81-.64,2.21,2.21,0,0,0-1-.23h-4.14Zm-1.79,6.69V92.64h6a3.78,3.78,0,0,1,1.71.39,4.31,4.31,0,0,1,1.35,1,5,5,0,0,1,.88,1.46,4.49,4.49,0,0,1,.32,1.65,4.9,4.9,0,0,1-.21,1.43,4.4,4.4,0,0,1-.59,1.25,4,4,0,0,1-.93,1,3.6,3.6,0,0,1-1.22.58l3.41,5.43h-2l-3.21-5.09h-3.73v5.09Z"/></g><g id="g230"><path id="path232" class="cls-4" d="M387,99.72a6.37,6.37,0,0,0,.35,2.09,5.77,5.77,0,0,0,1,1.79,4.73,4.73,0,0,0,1.53,1.24,4.26,4.26,0,0,0,2,.46,4.15,4.15,0,0,0,2-.49,5,5,0,0,0,1.52-1.28,5.7,5.7,0,0,0,1-1.79,6.42,6.42,0,0,0,0-4.1,5.49,5.49,0,0,0-1-1.78,5,5,0,0,0-1.53-1.23,4.45,4.45,0,0,0-4,0,4.87,4.87,0,0,0-1.52,1.26,5.73,5.73,0,0,0-1,1.78,6.31,6.31,0,0,0-.34,2m4.82,7.19a6,6,0,0,1-2.71-.61,6.67,6.67,0,0,1-2.09-1.62,7.33,7.33,0,0,1-1.35-2.31,7.67,7.67,0,0,1-.48-2.65,7.4,7.4,0,0,1,.51-2.71,7.49,7.49,0,0,1,1.4-2.29,6.75,6.75,0,0,1,2.11-1.59,6,6,0,0,1,2.65-.59,5.76,5.76,0,0,1,2.7.63,6.93,6.93,0,0,1,2.08,1.65,7.68,7.68,0,0,1,1.82,4.93,7.4,7.4,0,0,1-.51,2.71,7.51,7.51,0,0,1-1.39,2.29,6.71,6.71,0,0,1-2.1,1.57,6,6,0,0,1-2.65.59"/></g><g id="g234"><path id="path236" class="cls-4" d="M411.14,102.83a2.7,2.7,0,0,0-.62-1.72,2.15,2.15,0,0,0-.68-.54,1.91,1.91,0,0,0-.87-.2h-5v4.87h4.9a2.08,2.08,0,0,0,.91-.2,2.51,2.51,0,0,0,.73-.53,2.45,2.45,0,0,0,.67-1.69m-7.22-8.64v4.73h4.48a2,2,0,0,0,.87-.19,2.16,2.16,0,0,0,.68-.51,2.48,2.48,0,0,0,.63-1.66,2.75,2.75,0,0,0-.16-.94,2.51,2.51,0,0,0-.43-.76,1.88,1.88,0,0,0-.66-.5,1.92,1.92,0,0,0-.82-.18Zm9,9a3.4,3.4,0,0,1-.33,1.5,3.49,3.49,0,0,1-.89,1.16,4.09,4.09,0,0,1-1.31.74,4.8,4.8,0,0,1-1.6.26h-6.68V92.64h7a2.78,2.78,0,0,1,1.33.32,3.3,3.3,0,0,1,1,.83,3.79,3.79,0,0,1,.64,1.16,3.88,3.88,0,0,1,.23,1.31,3.81,3.81,0,0,1-.52,2,3.23,3.23,0,0,1-1.5,1.34,3.55,3.55,0,0,1,1.91,1.33,3.79,3.79,0,0,1,.7,2.29"/></g><g id="g238"><path id="path240" class="cls-4" d="M416.63,106.8V92.63h1.79v12.57h7.85v1.6Z"/></g><g id="g242"><path id="path244" class="cls-4" d="M438.76,105.21v1.6H429.2V92.63h9.38v1.6H431v4.59h6.6v1.5H431v4.89Z"/></g><g id="g246"><path id="path248" class="cls-4" d="M454.23,106.8v-11l-4.68,8.4h-1l-4.7-8.4v11h-1.79V92.63h1.88l5.1,9.2,5.11-9.2H456V106.8Z"/></g><g id="g250"><path id="path252" class="cls-4" d="M468.79,95.61a2.88,2.88,0,0,0-.63-.54,5.73,5.73,0,0,0-.89-.47,6.33,6.33,0,0,0-1.08-.34,5.6,5.6,0,0,0-1.22-.13,3.83,3.83,0,0,0-2.41.62,2.07,2.07,0,0,0-.76,1.7,1.9,1.9,0,0,0,.22,1,1.79,1.79,0,0,0,.68.65,5.14,5.14,0,0,0,1.16.47c.46.13,1,.27,1.65.42a17.08,17.08,0,0,1,2,.55,5.75,5.75,0,0,1,1.51.77,3.1,3.1,0,0,1,1,1.12,3.6,3.6,0,0,1,.33,1.62,3.72,3.72,0,0,1-.4,1.77,3.53,3.53,0,0,1-1.08,1.24,4.63,4.63,0,0,1-1.62.72,8.49,8.49,0,0,1-2,.23,9.27,9.27,0,0,1-3.08-.51,8.61,8.61,0,0,1-2.65-1.49l.85-1.52a4.86,4.86,0,0,0,.82.68,6.71,6.71,0,0,0,1.15.61,8.46,8.46,0,0,0,1.39.44,7,7,0,0,0,1.56.17,4.3,4.3,0,0,0,2.34-.54,2,2,0,0,0,.57-2.63,2.28,2.28,0,0,0-.78-.71,6,6,0,0,0-1.28-.53c-.51-.15-1.09-.31-1.74-.47a17.54,17.54,0,0,1-1.88-.56,5.18,5.18,0,0,1-1.36-.72,2.72,2.72,0,0,1-.82-1,3.41,3.41,0,0,1-.28-1.44,4.09,4.09,0,0,1,.38-1.8,3.78,3.78,0,0,1,1.05-1.32A4.56,4.56,0,0,1,463,92.8a7.25,7.25,0,0,1,6.64,1.35Z"/></g><g id="g254"><path id="path256" class="cls-4" d="M479.08,99.62a7.58,7.58,0,0,1,.45-2.54,7.08,7.08,0,0,1,1.31-2.27A6.6,6.6,0,0,1,483,93.17a6.31,6.31,0,0,1,2.83-.62,5.9,5.9,0,0,1,3.23.86,5.33,5.33,0,0,1,2,2.23l-1.41.92a4.14,4.14,0,0,0-.76-1.14,4,4,0,0,0-1-.74,4.13,4.13,0,0,0-1.08-.4,5.06,5.06,0,0,0-1.09-.12,4.29,4.29,0,0,0-2.07.49,4.84,4.84,0,0,0-1.52,1.28,5.55,5.55,0,0,0-.92,1.78,6.65,6.65,0,0,0-.31,2,6.15,6.15,0,0,0,.37,2.13,5.85,5.85,0,0,0,1,1.79,5,5,0,0,0,1.55,1.24,4.19,4.19,0,0,0,1.94.46,4.9,4.9,0,0,0,1.14-.14,4.12,4.12,0,0,0,1.12-.45,4.69,4.69,0,0,0,1-.78,3.8,3.8,0,0,0,.76-1.13l1.49.82a4.38,4.38,0,0,1-.94,1.41,6,6,0,0,1-1.37,1,6.92,6.92,0,0,1-1.62.64,6.59,6.59,0,0,1-1.67.22,5.59,5.59,0,0,1-2.66-.64,7,7,0,0,1-2.09-1.67,7.78,7.78,0,0,1-1.85-5"/></g><g id="g258"><path id="path260" class="cls-4" d="M494.53,106.8V92.63h1.79v12.57h7.85v1.6Z"/></g><path id="path262" class="cls-4" d="M507.1,92.63h1.79V106.8H507.1Z"/><g id="g264"><path id="path266" class="cls-4" d="M515.14,96V106.8h-1.79V92.63h1.39l8.73,11v-11h1.79V106.8h-1.51Z"/></g><path id="path268" class="cls-4" d="M529.73,92.63h1.79V106.8h-1.79Z"/><g id="g270"><path id="path272" class="cls-4" d="M535.14,99.62a7.58,7.58,0,0,1,.45-2.54,7.08,7.08,0,0,1,1.31-2.27A6.6,6.6,0,0,1,539,93.17a6.31,6.31,0,0,1,2.83-.62,5.9,5.9,0,0,1,3.23.86,5.33,5.33,0,0,1,2,2.23l-1.41.92a4.14,4.14,0,0,0-.76-1.14,4,4,0,0,0-1-.74,4.13,4.13,0,0,0-1.08-.4,5.06,5.06,0,0,0-1.09-.12,4.29,4.29,0,0,0-2.07.49,4.84,4.84,0,0,0-1.52,1.28,5.55,5.55,0,0,0-.92,1.78,6.65,6.65,0,0,0-.31,2,6.15,6.15,0,0,0,.37,2.13,5.85,5.85,0,0,0,1,1.79,5,5,0,0,0,1.55,1.24,4.19,4.19,0,0,0,1.94.46,4.9,4.9,0,0,0,1.14-.14,4.12,4.12,0,0,0,1.12-.45,4.69,4.69,0,0,0,1-.78,3.8,3.8,0,0,0,.76-1.13l1.49.82a4.38,4.38,0,0,1-.94,1.41,6,6,0,0,1-1.37,1,6.92,6.92,0,0,1-1.62.64,6.59,6.59,0,0,1-1.67.22,5.59,5.59,0,0,1-2.66-.64,7,7,0,0,1-2.09-1.67,7.78,7.78,0,0,1-1.85-5"/></g></g></g></g></g></g></svg>