<?xml version="1.0" encoding="utf-8"?>
<!-- Generator: Adobe Illustrator 21.1.0, SVG Export Plug-In . SVG Version: 6.00 Build 0)  -->
<svg version="1.1" id="Layer_1" xmlns="http://www.w3.org/2000/svg" xmlns:xlink="http://www.w3.org/1999/xlink" x="0px" y="0px"
	 viewBox="0 0 1366 768" style="enable-background:new 0 0 1366 768;" xml:space="preserve">
<style type="text/css">
	.st0{fill:#44425B;}
	.st1{fill:#3D3759;stroke:#3D3759;stroke-width:2;stroke-miterlimit:10;}
	.st2{fill:#62AFAE;}
	.st3{fill:#62A9A7;}
</style>
<g>
	<path class="st0" d="M359.2,321h-8.9l-19-17c-0.7-0.6-1.1-1.1-1.3-1.4h-0.2V321h-6.5v-37.3h6.5v17.6h0.2c0.4-0.4,0.8-0.9,1.3-1.4
		l18.3-16.2h8.1l-21.2,17.9L359.2,321z"/>
	<path class="st0" d="M411,321h-6.4V288h-20.4v19.8c0,3.2-0.2,5.8-0.6,7.7s-1.4,3.4-3,4.4c-1.6,1.1-3.5,1.6-5.8,1.6
		c-1.5,0-3.2-0.2-5-0.6l1.1-4.4c1.1,0.3,2,0.5,2.7,0.5c1.5,0,2.7-0.5,3.3-1.4c0.7-0.9,1-2.7,1-5.2v-26.9H411V321z"/>
	<path class="st0" d="M469.3,321h-5.9v-30.1L438,321h-6.4v-37.3h5.9v30.2l25.4-30.2h6.4V321z"/>
	<path class="st0" d="M527.6,321h-6.4v-17.6h-24.9V321H490v-37.3h6.3V299h24.9v-15.3h6.4V321z"/>
	<path class="st0" d="M585.9,321h-5.9v-30.1L554.6,321h-6.4v-37.3h5.9v30.2l25.4-30.2h6.4V321z"/>
	<path class="st0" d="M643.7,321h-8.9l-19-17c-0.7-0.6-1.1-1.1-1.3-1.4h-0.2V321h-6.5v-37.3h6.5v17.6h0.2c0.4-0.4,0.8-0.9,1.3-1.4
		l18.3-16.2h8.1L621,301.6L643.7,321z"/>
	<path class="st0" d="M698.3,321h-7.1l-5.6-11.4h-20l-5.3,11.4h-6.7l18.4-37.3h6.8L698.3,321z M683.7,305.7
		c-3.9-8.1-6.1-12.7-6.6-13.8c-0.5-1.1-1.1-2.6-1.7-4.4h-0.2c-0.6,2.5-1.4,4.8-2.4,7l-5.4,11.2H683.7z"/>
	<path class="st0" d="M779.9,321h-6.4V288h-24.9V321h-6.3v-37.3h37.6V321z"/>
	<path class="st0" d="M800.4,283.7h18c2.8,0,5.3,0.1,7.4,0.3c2.1,0.2,4,0.8,5.7,1.7c1.8,0.9,3.1,2.2,4,3.8c0.9,1.6,1.4,3.2,1.4,5
		c0,3.4-1.4,6.2-4.3,8.3s-7.4,3.1-13.7,3.1h-12.2V321h-6.3V283.7z M806.7,301.4H819c7.5,0,11.3-2.3,11.3-6.8c0-1.5-0.5-2.8-1.5-4
		c-1-1.1-2.2-1.9-3.6-2.1c-1.4-0.3-3.5-0.4-6.4-0.4h-12.2V301.4z"/>
	<path class="st0" d="M875.9,283c6.7,0,12.2,1.8,16.4,5.3c4.3,3.5,6.4,8.2,6.4,14c0,5.8-2.1,10.4-6.4,14c-4.3,3.5-9.8,5.3-16.4,5.3
		c-6.9,0-12.4-1.8-16.6-5.5c-4.2-3.6-6.3-8.1-6.3-13.4c0-6.1,2.1-11,6.4-14.5C863.6,284.8,869.2,283,875.9,283z M875.9,317.4
		c4.9,0,8.8-1.3,11.8-4c3-2.6,4.5-6.3,4.6-11c0-4.9-1.5-8.6-4.6-11.2c-3.1-2.6-6.9-3.9-11.6-3.9c-4.8,0-8.7,1.3-11.8,3.8
		s-4.6,6.5-4.6,11.8c0,4.3,1.5,7.8,4.5,10.5S871,317.4,875.9,317.4z"/>
	<path class="st0" d="M923.6,299.5h12.4c6.4,0,10.9,1,13.5,3.1c2.6,2.1,3.9,4.6,3.9,7.6c0,2.9-1.2,5.4-3.7,7.6
		c-2.5,2.2-6.8,3.3-13,3.3h-19.4v-37.3h31v4.4h-24.7V299.5z M923.6,316.8H937c3.1,0,5.4-0.6,7.1-1.7c1.6-1.1,2.4-2.7,2.4-4.8
		c0-2.1-0.9-3.8-2.6-4.8c-1.7-1.1-5.4-1.6-11-1.6h-9.4V316.8z"/>
	<path class="st0" d="M1007.4,321h-6.4V288h-20.4v19.8c0,3.2-0.2,5.8-0.6,7.7c-0.4,1.9-1.4,3.4-3,4.4c-1.6,1.1-3.5,1.6-5.8,1.6
		c-1.5,0-3.2-0.2-5-0.6l1.1-4.4c1.1,0.3,2,0.5,2.7,0.5c1.5,0,2.7-0.5,3.3-1.4c0.7-0.9,1-2.7,1-5.2v-26.9h33.1V321z"/>
	<path class="st0" d="M1063.8,321h-35.7v-37.3h34.6v4.4h-28.3v11.4h26.5v4.4h-26.5v12.6h29.4V321z"/>
	<path class="st0" d="M1128,321h-6v-31.2h-0.1l-13.8,31.2h-5.7l-13.7-31.7h-0.2V321h-6v-37.3h9.5l11.3,26.4c1.3,2.9,2,4.8,2.2,5.5
		h0.1c0.6-1.4,1.4-3.4,2.5-6l11.4-26h8.4V321z"/>
	<path class="st0" d="M360.3,382.9H354V350H329v32.9h-6.3v-37.3h37.6V382.9z"/>
	<path class="st0" d="M417.5,382.9h-6.4V350h-20.4v19.8c0,3.2-0.2,5.8-0.6,7.7s-1.4,3.4-3,4.4c-1.6,1.1-3.5,1.6-5.8,1.6
		c-1.5,0-3.2-0.2-5-0.6l1.1-4.4c1.1,0.3,2,0.5,2.7,0.5c1.5,0,2.7-0.5,3.3-1.4c0.7-0.9,1-2.7,1-5.2v-26.9h33.1V382.9z"/>
	<path class="st0" d="M477.5,382.9h-7.1l-5.6-11.4h-20l-5.3,11.4h-6.7l18.4-37.3h6.8L477.5,382.9z M462.8,367.6
		c-3.9-8.1-6.1-12.7-6.6-13.8c-0.5-1.1-1.1-2.6-1.7-4.4h-0.2c-0.6,2.5-1.4,4.8-2.4,7l-5.4,11.2H462.8z"/>
	<path class="st0" d="M530.4,382.9H524v-17.6h-24.9v17.6h-6.3v-37.3h6.3v15.3H524v-15.3h6.4V382.9z"/>
	<path class="st0" d="M588.7,382.9h-5.9v-30.1l-25.4,30.1h-6.4v-37.3h5.9v30.2l25.4-30.2h6.4V382.9z"/>
	<path class="st0" d="M609.2,345.6h18c2.8,0,5.3,0.1,7.4,0.3c2.1,0.2,4,0.8,5.7,1.7c1.8,0.9,3.1,2.2,4,3.8c0.9,1.6,1.4,3.2,1.4,5
		c0,3.4-1.4,6.2-4.3,8.3c-2.8,2.1-7.4,3.1-13.7,3.1h-12.2v15.1h-6.3V345.6z M615.6,363.4h12.3c7.5,0,11.3-2.3,11.3-6.8
		c0-1.5-0.5-2.8-1.5-4c-1-1.1-2.2-1.9-3.6-2.1c-1.4-0.3-3.5-0.4-6.3-0.4h-12.2V363.4z"/>
	<path class="st0" d="M684.7,345c6.7,0,12.2,1.8,16.4,5.3c4.3,3.5,6.4,8.2,6.4,14c0,5.8-2.1,10.4-6.4,14c-4.3,3.5-9.8,5.3-16.4,5.3
		c-6.9,0-12.4-1.8-16.6-5.5c-4.2-3.6-6.3-8.1-6.3-13.4c0-6.1,2.1-11,6.4-14.5C672.4,346.7,678,345,684.7,345z M684.7,379.3
		c4.9,0,8.8-1.3,11.8-4c3-2.6,4.5-6.3,4.6-11c0-4.9-1.5-8.6-4.6-11.2c-3.1-2.6-6.9-3.9-11.6-3.9c-4.8,0-8.7,1.3-11.8,3.8
		c-3.1,2.6-4.6,6.5-4.6,11.8c0,4.3,1.5,7.8,4.5,10.5S679.9,379.3,684.7,379.3z"/>
	<path class="st0" d="M752.8,363.1c3,0.7,5.2,1.9,6.7,3.5c1.5,1.6,2.2,3.4,2.2,5.5s-0.7,4-2,5.8c-1.3,1.7-3.3,3-5.7,3.9
		s-5.8,1.2-10.1,1.2h-18.3v-37.3h18c5.8,0,9.9,1,12.3,3c2.4,2,3.6,4.2,3.6,6.6c0,1.6-0.6,3.1-1.6,4.5
		C756.7,361,755.1,362.2,752.8,363.1z M732,361.2h10.4c2.1,0,3.9-0.1,5.4-0.3c1.4-0.2,2.7-0.7,3.8-1.5c1.1-0.8,1.7-2,1.7-3.7
		c0-1.8-0.6-3.1-1.7-3.9c-1.1-0.8-2.5-1.4-4-1.5c-1.6-0.2-3.6-0.3-6-0.3H732V361.2z M732,378.5h11.9c4.3,0,7.2-0.6,8.9-1.7
		c1.7-1.1,2.5-2.7,2.5-4.7c0-2-0.9-3.6-2.6-4.7c-1.8-1.1-4.9-1.7-9.5-1.7H732V378.5z"/>
	<path class="st0" d="M819.9,382.9h-7.1l-5.6-11.4h-20l-5.3,11.4h-6.7l18.4-37.3h6.8L819.9,382.9z M805.3,367.6
		c-3.9-8.1-6.1-12.7-6.6-13.8s-1.1-2.6-1.7-4.4h-0.2c-0.6,2.5-1.4,4.8-2.4,7l-5.4,11.2H805.3z"/>
	<path class="st0" d="M872.8,382.9h-6.4v-17.6h-24.9v17.6h-6.3v-37.3h6.3v15.3h24.9v-15.3h6.4V382.9z"/>
	<path class="st0" d="M931.2,382.9h-5.9v-30.1l-25.4,30.1h-6.4v-37.3h5.9v30.2l25.4-30.2h6.4V382.9z"/>
	<path class="st0" d="M989.4,382.9H983v-16.5h-7.3c-2.1,0-3.8,0.2-5.1,0.6c-1.3,0.4-2.6,1.2-3.8,2.4c-1.3,1.2-3,3-5.1,5.7l-6.5,7.9
		h-7.9c5.7-7,9-10.9,9.8-11.9s1.9-1.9,3.2-2.9c1.3-0.9,2.8-1.7,4.3-2.3c-4.4-0.5-7.8-1.6-10-3.4c-2.3-1.7-3.4-4-3.4-6.8
		c0-1.8,0.5-3.4,1.4-4.8c0.9-1.4,2.2-2.5,3.8-3.4s3.3-1.4,5-1.6c1.8-0.2,4-0.3,6.8-0.3h21.2V382.9z M983,362v-12.3h-15.1
		c-3.3,0-5.8,0.5-7.6,1.6c-1.8,1.1-2.6,2.6-2.6,4.5c0,1.4,0.5,2.6,1.6,3.6c1.1,1.1,2.4,1.7,3.9,2.1c1.6,0.3,3.6,0.5,6.2,0.5H983z"/>
	<path class="st0" d="M1079,371.1c-1.4,4.2-3.8,7.3-7.3,9.4c-3.5,2.1-7.6,3.1-12.5,3.1c-7.8,0-13.5-1.9-17.1-5.7
		c-3.6-3.8-5.4-8.4-5.4-13.8c0-6,2.1-10.6,6.3-14c4.2-3.4,9.6-5.1,16.2-5.1c4.7,0,8.6,0.9,11.9,2.8c3.3,1.8,5.6,4.6,6.9,8.1
		l-6.2,1.1c-1-2.6-2.6-4.5-4.8-5.9c-2.1-1.3-4.8-2-8-2c-5.2,0-9.2,1.3-11.9,4s-4,6.3-4,10.8c0,5.2,1.4,9.1,4.3,11.6
		c2.8,2.5,6.5,3.8,11.1,3.8c3.7,0,6.8-0.8,9.1-2.4c2.3-1.6,4-4,4.9-7.1L1079,371.1z"/>
	<path class="st0" d="M1132.7,382.9H1097v-37.3h34.6v4.4h-28.3v11.4h26.5v4.4h-26.5v12.6h29.4V382.9z"/>
	<path class="st0" d="M1196.9,382.9h-6v-31.2h-0.1l-13.8,31.2h-5.7l-13.7-31.7h-0.2v31.7h-6v-37.3h9.5l11.3,26.4
		c1.3,2.9,2,4.8,2.2,5.5h0.1c0.6-1.4,1.4-3.4,2.5-6l11.4-26h8.4V382.9z"/>
	<path class="st0" d="M1223.7,361.5h12.3c6.7,0,11.2,1,13.7,3.1c2.5,2.1,3.7,4.5,3.7,7.4c0,2.4-0.8,4.5-2.5,6.3
		c-1.7,1.8-3.7,3-6.1,3.6c-2.4,0.6-5.5,1-9.3,1h-18.2v-37.3h6.3V361.5z M1223.7,378.7h11.6c1.9,0,3.4-0.1,4.6-0.2
		c1.1-0.1,2.3-0.5,3.4-1s2-1.3,2.5-2.2c0.6-0.9,0.9-2,0.9-3.2c0-2.1-0.9-3.7-2.6-4.8c-1.8-1.1-5.4-1.6-10.8-1.6h-9.5V378.7z"/>
	<path class="st0" d="M1308.8,382.9h-5.9v-30.1l-25.4,30.1h-6.4v-37.3h5.9v30.2l25.4-30.2h6.4V382.9z"/>
</g>
<line class="st1" x1="322.7" y1="424.5" x2="1309" y2="424.5"/>
<line class="st1" x1="322.7" y1="423.5" x2="1309" y2="423.5"/>
<line class="st1" x1="327.7" y1="422.5" x2="1309" y2="421.5"/>
<line class="st1" x1="322.7" y1="422.5" x2="1309" y2="422.5"/>
<path class="st2" d="M240.9,489.7c0,0,0.4-2.9-1.2-3.6c-1.6-0.7-14.3-3.4-16.5-11.5c-1-3.9,0.4-8.5,1-10.5c0.6-2,3.4-7.5,4.1-14.3
	c0.7-6.9,0.4-7.5,0.7-10c0.3-3.3,2.3-4.4,2.9-7.5c0.5-2.8,0.1-3.1,1.1-5.5c1-2.4,6.7-13.8,7.6-20.9c1.2-8.6-1-7.4-0.9-10
	c0.4-6,3.6-2.7,3.5-8.3c1.2-1.8,1.6-3.2,1.2-7.1c-0.3-3.1-4.8-5-4.8-8.8c0-5.8,3.4-9.1,3.3-12.1c0-3.3-0.6-4.7-0.3-7
	c0.3-2.3,4.9-6,4.5-14.2c-0.3-6.5-3.9-16.3-13-21.1c-3.7-2-4.9-4.4-4.7-7.1c0.2-2.7,0.3-5.1,1.6-6.2c1.2-1.1,5.1-2.6,5.3-4.4
	c0.5-4.4-1.9-12.2-5.4-19c-2.1-4.1-3.6-7-9.8-7.1c-3.4-0.1-6.1,1.1-8.4,2.2c-1.9,1-5.9,4-5.8,8.7c0,2-0.1,4.1,1.2,5.7
	c0.2,0.2-0.1,2.5-0.1,2.5s-8.6-3.2-17.2,10.2c-6.5,10.2,1.7,12.1,3.7,15.3c0.6,1,2.4,5.8-0.8,8.7c-3.1,2.9-9.2,5.1-11.7,6.6
	c-2.6,1.5-7.4,3.7-8.1,6.9c0,0.1-0.7,0.3-0.7,0.4c-0.1,0.6-0.1,0.9,0,1.4c0,0.1,0.6,0.2,0.6,0.3c0.2,2.9,1.5,4.8,4,6.2
	c1.5,0.8-0.1,1.4-0.1,1.4s-19.9,2.8-21.6,21.3c-1.6,16.7,16.5,19.5,16.5,19.5s-3.1,9.4-0.7,23.4c0.9,5.4,4.1,13.8,5.3,16.4
	c1,2.3-0.2,3.5,0.8,6.1c1.6,3.9,3.5,4.1,5,9.2c0.4,1.4,1.1,5,2.5,10.2c1.3,5,5.7,9.9,5.3,17.4c-0.3,5.5-6,13.6-15.6,14.1
	c-2.1,0.1-1.3,2.2-1.3,2.2h-13.8l4.1,3.5h85.7l4.1-3.5H240.9z M201.2,354.7c1.4-3.4,5.9-10.4,6-10.9c0.2-0.5,3.3,13.1,3.6,14.7
	c0.3,1.6,1.1,5.7,1.1,6.8c0,1.7-1.2,3.6-2.4,4.5c-1.9,1.4-3.6,1.8-4.6,3.7c0,0-2.6-1.2-3.9-2.7c-1.2-1.6-2-3.9-2.1-6
	C198.9,363,199.9,358.2,201.2,354.7z M210.7,461.8c-0.2,5.4-0.6,10.6-2.9,13.6c-0.3,0.7-0.9,1.7-1.1,2.6c0,1.6-0.8,2-0.8,2
	s-1.1-0.6-1.8-1.5c-0.4-0.5-0.4-1.6-0.7-2.1c-0.6-1.5-2.3-2.1-2.3-4.4c0-2.3-0.8-3.8,0.4-8.6c1.2-4.8,1.8-10.9-0.1-16.4
	s-4.2-10.6-4.7-14.2c-0.5-3.6,0.4-7.4,1.1-9.8s2.6-7.1,2.7-9.2c0.1-2.1,0.7-9.8,0.7-10.7s5.9-10.4,6.1-10.7s2.4,3.4,2.3,5.2
	c-0.3,3.3-0.8,11,1,15.7c1.9,4.8,1.4,7.1,1.8,8.6c1.7,5.1-5.4,13.4-5.3,20.2C207.3,447.4,210.9,456.4,210.7,461.8z M215.3,312
	c-0.8,1.4-6.5,9.7-7.9,9.7c-1.1,0-1.4-1.6-1.4-2.3c0.1-3,2.9-6.1,4.1-7.4c0.6-0.7,2.3-1.6,3.4-3.1c1-1.4,0.8-3,2.2-2.9
	C216.2,306.1,216.2,310.5,215.3,312z"/>
<path class="st2" d="M203.8,267.7c-49.1,0-88.8,54.5-88.8,121.7S154.8,511,203.8,511c49.1,0,88.8-54.5,88.8-121.7
	S252.9,267.7,203.8,267.7z M203.8,508.7c-46.1,0-83.4-53.4-83.4-119.3S157.7,270,203.8,270c46.1,0,83.4,53.4,83.4,119.3
	S249.9,508.7,203.8,508.7z"/>
<g>
	<path class="st3" d="M351,468.9v30.8h-3.9v-14h-16.8v14h-3.9v-30.8h3.9v13.3h16.8v-13.3H351z"/>
	<path class="st3" d="M373.3,496.4c1.8,0,3.3-0.3,4.4-1c1.2-0.7,2.1-1.6,2.8-2.7c0.7-1.1,1.2-2.4,1.5-3.8c0.3-1.4,0.4-2.9,0.4-4.4
		v-15.6h3.9v15.6c0,2.1-0.2,4.1-0.7,5.9c-0.5,1.9-1.2,3.5-2.3,4.9s-2.4,2.5-4,3.4c-1.7,0.8-3.7,1.2-6,1.2c-2.4,0-4.5-0.4-6.2-1.3
		c-1.7-0.9-3-2-4-3.4c-1-1.4-1.8-3.1-2.2-4.9c-0.4-1.9-0.7-3.8-0.7-5.7v-15.6h3.9v15.6c0,1.5,0.1,3,0.5,4.4c0.3,1.4,0.8,2.7,1.5,3.8
		c0.7,1.1,1.6,2,2.8,2.7C370.1,496.1,371.5,496.4,373.3,496.4z"/>
	<path class="st3" d="M422.1,499.7v-23.8L412,494.2h-2.2l-10.2-18.3v23.8h-3.9v-30.8h4.1l11.1,20l11.1-20h4v30.8H422.1z"/>
	<path class="st3" d="M444.8,468.9h3.3l12.5,30.8h-4.1l-3.6-9H440l-3.6,9h-4.1L444.8,468.9z M452,487.7l-5.5-14.2l-5.7,14.2H452z"/>
	<path class="st3" d="M470.8,476.2v23.5h-3.9v-30.8h3l19,24V469h3.9v30.7h-3.3L470.8,476.2z"/>
	<path class="st3" d="M516.2,499.7v-30.8h13.1c1.3,0,2.6,0.3,3.7,0.8c1.1,0.6,2.1,1.3,2.9,2.3c0.8,0.9,1.5,2,1.9,3.2
		c0.5,1.2,0.7,2.4,0.7,3.6c0,1.1-0.2,2.1-0.5,3.1c-0.3,1-0.7,1.9-1.3,2.7c-0.6,0.8-1.2,1.5-2,2.1c-0.8,0.6-1.7,1-2.7,1.3l7.4,11.8
		h-4.4l-7-11.1H520v11.1H516.2z M520,485.2h9.3c0.8,0,1.5-0.2,2.2-0.5c0.6-0.3,1.2-0.8,1.7-1.4c0.5-0.6,0.8-1.3,1.1-2.1
		c0.3-0.8,0.4-1.6,0.4-2.4c0-0.9-0.2-1.7-0.5-2.4c-0.3-0.8-0.7-1.4-1.2-2c-0.5-0.6-1.1-1.1-1.8-1.4c-0.7-0.3-1.4-0.5-2.1-0.5h-9
		V485.2z"/>
	<path class="st3" d="M567.6,496.2v3.5h-20.8v-30.8h20.4v3.5h-16.5v10H565v3.3h-14.3v10.6H567.6z"/>
	<path class="st3" d="M574.7,499.7v-30.8h12.8c1.3,0,2.6,0.3,3.7,0.8c1.1,0.6,2.1,1.3,2.9,2.3c0.8,0.9,1.5,2,1.9,3.2
		c0.5,1.2,0.7,2.4,0.7,3.6c0,1.3-0.2,2.5-0.6,3.7c-0.4,1.2-1,2.2-1.8,3.2c-0.8,0.9-1.7,1.7-2.8,2.2c-1.1,0.6-2.3,0.8-3.7,0.8h-9.1
		v11.1H574.7z M578.6,485.2h8.9c0.8,0,1.5-0.2,2.2-0.5c0.6-0.3,1.2-0.8,1.7-1.4c0.5-0.6,0.8-1.3,1.1-2.1c0.3-0.8,0.4-1.6,0.4-2.5
		c0-0.9-0.1-1.7-0.5-2.5c-0.3-0.8-0.7-1.5-1.2-2c-0.5-0.6-1.1-1-1.8-1.3c-0.7-0.3-1.4-0.5-2.1-0.5h-8.7V485.2z"/>
	<path class="st3" d="M603.6,499.7v-30.8h13.1c1.3,0,2.6,0.3,3.7,0.8c1.1,0.6,2.1,1.3,2.9,2.3c0.8,0.9,1.5,2,1.9,3.2
		c0.5,1.2,0.7,2.4,0.7,3.6c0,1.1-0.2,2.1-0.5,3.1c-0.3,1-0.7,1.9-1.3,2.7c-0.6,0.8-1.2,1.5-2,2.1c-0.8,0.6-1.7,1-2.7,1.3l7.4,11.8
		h-4.4l-7-11.1h-8.1v11.1H603.6z M607.5,485.2h9.3c0.8,0,1.5-0.2,2.2-0.5c0.6-0.3,1.2-0.8,1.7-1.4c0.5-0.6,0.8-1.3,1.1-2.1
		c0.3-0.8,0.4-1.6,0.4-2.4c0-0.9-0.2-1.7-0.5-2.4c-0.3-0.8-0.7-1.4-1.2-2c-0.5-0.6-1.1-1.1-1.8-1.4c-0.7-0.3-1.4-0.5-2.1-0.5h-9
		V485.2z"/>
	<path class="st3" d="M646.4,499.9c-2.2,0-4.1-0.4-5.9-1.3c-1.8-0.9-3.3-2.1-4.5-3.5c-1.3-1.5-2.2-3.1-2.9-5c-0.7-1.9-1-3.8-1-5.8
		c0-2.1,0.4-4,1.1-5.9c0.7-1.9,1.7-3.5,3-5s2.8-2.6,4.6-3.4c1.8-0.9,3.7-1.3,5.8-1.3c2.2,0,4.1,0.5,5.9,1.4c1.8,0.9,3.3,2.1,4.5,3.6
		c1.3,1.5,2.2,3.1,2.9,5c0.7,1.9,1,3.8,1,5.7c0,2.1-0.4,4-1.1,5.9c-0.7,1.9-1.7,3.5-3,5c-1.3,1.4-2.8,2.6-4.6,3.4
		C650.4,499.5,648.5,499.9,646.4,499.9z M636,484.3c0,1.6,0.3,3.1,0.8,4.5c0.5,1.5,1.2,2.8,2.1,3.9c0.9,1.1,2,2,3.3,2.7
		c1.3,0.7,2.7,1,4.3,1c1.6,0,3.1-0.4,4.4-1.1c1.3-0.7,2.4-1.6,3.3-2.8c0.9-1.1,1.6-2.4,2.1-3.9c0.5-1.4,0.7-2.9,0.7-4.4
		c0-1.6-0.3-3.1-0.8-4.5c-0.5-1.5-1.2-2.7-2.2-3.9c-0.9-1.1-2-2-3.3-2.7c-1.3-0.7-2.7-1-4.2-1c-1.6,0-3.1,0.3-4.4,1
		c-1.3,0.7-2.4,1.6-3.3,2.7c-0.9,1.1-1.6,2.4-2.1,3.9C636.2,481.3,636,482.8,636,484.3z"/>
	<path class="st3" d="M668.8,499.7v-30.8h10.6c2.4,0,4.6,0.4,6.4,1.2c1.9,0.8,3.4,1.9,4.6,3.3c1.2,1.4,2.2,3,2.8,4.9
		c0.6,1.9,0.9,3.9,0.9,6c0,2.3-0.3,4.5-1,6.4c-0.7,1.9-1.7,3.5-3,4.9c-1.3,1.3-2.8,2.4-4.7,3.1c-1.8,0.7-3.9,1.1-6.1,1.1H668.8z
		 M690.2,484.3c0-1.7-0.2-3.3-0.7-4.8c-0.5-1.5-1.2-2.7-2.1-3.8c-0.9-1-2.1-1.9-3.4-2.4c-1.4-0.6-2.9-0.9-4.6-0.9h-6.7v23.8h6.7
		c1.8,0,3.3-0.3,4.7-0.9c1.4-0.6,2.5-1.4,3.4-2.5c0.9-1.1,1.6-2.3,2.1-3.8C690,487.6,690.2,486,690.2,484.3z"/>
	<path class="st3" d="M714.6,496.4c1.8,0,3.3-0.3,4.4-1c1.2-0.7,2.1-1.6,2.8-2.7c0.7-1.1,1.2-2.4,1.5-3.8c0.3-1.4,0.4-2.9,0.4-4.4
		v-15.6h3.9v15.6c0,2.1-0.2,4.1-0.7,5.9c-0.5,1.9-1.2,3.5-2.3,4.9c-1,1.4-2.4,2.5-4,3.4c-1.7,0.8-3.7,1.2-6,1.2
		c-2.4,0-4.5-0.4-6.2-1.3c-1.7-0.9-3-2-4-3.4c-1-1.4-1.8-3.1-2.2-4.9c-0.4-1.9-0.7-3.8-0.7-5.7v-15.6h3.9v15.6c0,1.5,0.1,3,0.5,4.4
		c0.3,1.4,0.8,2.7,1.5,3.8c0.7,1.1,1.6,2,2.8,2.7C711.4,496.1,712.8,496.4,714.6,496.4z"/>
	<path class="st3" d="M734.9,484.1c0-1.8,0.3-3.7,1-5.5c0.6-1.8,1.6-3.5,2.8-4.9c1.2-1.5,2.8-2.6,4.6-3.5c1.8-0.9,3.9-1.3,6.2-1.3
		c2.7,0,5.1,0.6,7,1.9c2,1.2,3.4,2.9,4.4,4.9l-3.1,2c-0.5-1-1-1.8-1.7-2.5c-0.6-0.7-1.3-1.2-2.1-1.6c-0.8-0.4-1.5-0.7-2.3-0.9
		c-0.8-0.2-1.6-0.3-2.4-0.3c-1.7,0-3.2,0.4-4.5,1.1c-1.3,0.7-2.4,1.6-3.3,2.8c-0.9,1.1-1.6,2.4-2,3.9c-0.4,1.4-0.7,2.9-0.7,4.3
		c0,1.6,0.3,3.2,0.8,4.6c0.5,1.5,1.3,2.8,2.2,3.9c0.9,1.1,2.1,2,3.4,2.7c1.3,0.7,2.7,1,4.2,1c0.8,0,1.6-0.1,2.5-0.3
		c0.8-0.2,1.7-0.5,2.4-1c0.8-0.4,1.5-1,2.2-1.7c0.7-0.7,1.2-1.5,1.7-2.4l3.2,1.8c-0.5,1.2-1.2,2.2-2,3.1c-0.9,0.9-1.9,1.6-3,2.2
		c-1.1,0.6-2.3,1.1-3.5,1.4c-1.2,0.3-2.4,0.5-3.6,0.5c-2.1,0-4-0.5-5.8-1.4c-1.8-0.9-3.3-2.1-4.5-3.6c-1.3-1.5-2.3-3.2-3-5.1
		C735.2,488,734.9,486.1,734.9,484.1z"/>
	<path class="st3" d="M790.4,472.4h-10.6v27.3H776v-27.3h-10.6v-3.5h25V472.4z"/>
	<path class="st3" d="M796.9,499.7v-30.8h3.9v30.8H796.9z"/>
	<path class="st3" d="M823,499.9c-2.2,0-4.1-0.4-5.9-1.3c-1.8-0.9-3.3-2.1-4.5-3.5c-1.3-1.5-2.2-3.1-2.9-5c-0.7-1.9-1-3.8-1-5.8
		c0-2.1,0.4-4,1.1-5.9c0.7-1.9,1.7-3.5,3-5s2.8-2.6,4.6-3.4c1.8-0.9,3.7-1.3,5.8-1.3c2.2,0,4.1,0.5,5.9,1.4c1.8,0.9,3.3,2.1,4.5,3.6
		c1.3,1.5,2.2,3.1,2.9,5c0.7,1.9,1,3.8,1,5.7c0,2.1-0.4,4-1.1,5.9s-1.7,3.5-3,5c-1.3,1.4-2.8,2.6-4.6,3.4
		C827,499.5,825.1,499.9,823,499.9z M812.5,484.3c0,1.6,0.3,3.1,0.8,4.5c0.5,1.5,1.2,2.8,2.1,3.9c0.9,1.1,2,2,3.3,2.7
		c1.3,0.7,2.7,1,4.3,1c1.6,0,3.1-0.4,4.4-1.1c1.3-0.7,2.4-1.6,3.3-2.8c0.9-1.1,1.6-2.4,2.1-3.9c0.5-1.4,0.7-2.9,0.7-4.4
		c0-1.6-0.3-3.1-0.8-4.5c-0.5-1.5-1.2-2.7-2.2-3.9c-0.9-1.1-2-2-3.3-2.7c-1.3-0.7-2.7-1-4.2-1c-1.6,0-3.1,0.3-4.4,1
		c-1.3,0.7-2.4,1.6-3.3,2.7c-0.9,1.1-1.6,2.4-2.1,3.9C812.8,481.3,812.5,482.8,812.5,484.3z"/>
	<path class="st3" d="M849.2,476.2v23.5h-3.9v-30.8h3l19,24V469h3.9v30.7h-3.3L849.2,476.2z"/>
	<path class="st3" d="M894.6,499.7v-30.8h12.8c1.3,0,2.6,0.3,3.7,0.8c1.1,0.6,2.1,1.3,2.9,2.3c0.8,0.9,1.5,2,1.9,3.2
		c0.5,1.2,0.7,2.4,0.7,3.6c0,1.3-0.2,2.5-0.6,3.7c-0.4,1.2-1,2.2-1.8,3.2c-0.8,0.9-1.7,1.7-2.8,2.2c-1.1,0.6-2.3,0.8-3.7,0.8h-9.1
		v11.1H894.6z M898.4,485.2h8.9c0.8,0,1.5-0.2,2.2-0.5c0.6-0.3,1.2-0.8,1.7-1.4c0.5-0.6,0.8-1.3,1.1-2.1c0.3-0.8,0.4-1.6,0.4-2.5
		c0-0.9-0.2-1.7-0.5-2.5c-0.3-0.8-0.7-1.5-1.2-2c-0.5-0.6-1.1-1-1.8-1.3c-0.7-0.3-1.4-0.5-2.1-0.5h-8.7V485.2z"/>
	<path class="st3" d="M923.5,499.7v-30.8h13.1c1.3,0,2.6,0.3,3.7,0.8c1.1,0.6,2.1,1.3,2.9,2.3s1.5,2,1.9,3.2
		c0.5,1.2,0.7,2.4,0.7,3.6c0,1.1-0.1,2.1-0.5,3.1c-0.3,1-0.7,1.9-1.3,2.7c-0.6,0.8-1.2,1.5-2,2.1c-0.8,0.6-1.7,1-2.7,1.3l7.4,11.8
		h-4.4l-7-11.1h-8.1v11.1H923.5z M927.3,485.2h9.3c0.8,0,1.5-0.2,2.2-0.5c0.6-0.3,1.2-0.8,1.7-1.4c0.5-0.6,0.8-1.3,1.1-2.1
		c0.3-0.8,0.4-1.6,0.4-2.4c0-0.9-0.1-1.7-0.4-2.4c-0.3-0.8-0.7-1.4-1.2-2c-0.5-0.6-1.1-1.1-1.8-1.4c-0.7-0.3-1.4-0.5-2.1-0.5h-9
		V485.2z"/>
	<path class="st3" d="M966.3,499.9c-2.2,0-4.1-0.4-5.9-1.3c-1.8-0.9-3.3-2.1-4.5-3.5c-1.3-1.5-2.2-3.1-2.9-5c-0.7-1.9-1-3.8-1-5.8
		c0-2.1,0.4-4,1.1-5.9c0.7-1.9,1.7-3.5,3-5s2.8-2.6,4.6-3.4c1.8-0.9,3.7-1.3,5.8-1.3c2.2,0,4.1,0.5,5.9,1.4c1.8,0.9,3.3,2.1,4.5,3.6
		c1.3,1.5,2.2,3.1,2.9,5c0.7,1.9,1,3.8,1,5.7c0,2.1-0.4,4-1.1,5.9c-0.7,1.9-1.7,3.5-3,5c-1.3,1.4-2.8,2.6-4.6,3.4
		C970.2,499.5,968.3,499.9,966.3,499.9z M955.8,484.3c0,1.6,0.3,3.1,0.8,4.5c0.5,1.5,1.2,2.8,2.1,3.9c0.9,1.1,2,2,3.3,2.7
		c1.3,0.7,2.7,1,4.3,1c1.6,0,3.1-0.4,4.4-1.1c1.3-0.7,2.4-1.6,3.3-2.8c0.9-1.1,1.6-2.4,2.1-3.9c0.5-1.4,0.7-2.9,0.7-4.4
		c0-1.6-0.3-3.1-0.8-4.5c-0.5-1.5-1.2-2.7-2.2-3.9c-0.9-1.1-2-2-3.3-2.7c-1.3-0.7-2.7-1-4.2-1c-1.6,0-3.1,0.3-4.4,1
		c-1.3,0.7-2.4,1.6-3.3,2.7c-0.9,1.1-1.6,2.4-2.1,3.9C956,481.3,955.8,482.8,955.8,484.3z"/>
	<path class="st3" d="M1012.1,491.8c0,1.2-0.2,2.3-0.7,3.3c-0.5,1-1.1,1.8-1.9,2.5c-0.8,0.7-1.8,1.2-2.8,1.6
		c-1.1,0.4-2.2,0.6-3.5,0.6h-14.5v-30.8h15.2c1.1,0,2,0.2,2.9,0.7c0.9,0.5,1.6,1.1,2.2,1.8c0.6,0.7,1.1,1.6,1.4,2.5
		c0.3,0.9,0.5,1.9,0.5,2.8c0,1.5-0.4,2.9-1.1,4.2s-1.8,2.3-3.3,2.9c1.8,0.5,3.1,1.5,4.2,2.9C1011.5,488.2,1012.1,489.9,1012.1,491.8
		z M992.5,472.3v10.3h9.7c0.7,0,1.3-0.1,1.9-0.4c0.6-0.3,1.1-0.6,1.5-1.1c0.4-0.5,0.7-1,1-1.6c0.2-0.6,0.4-1.3,0.4-2
		c0-0.7-0.1-1.4-0.3-2c-0.2-0.6-0.5-1.2-0.9-1.6c-0.4-0.5-0.9-0.8-1.4-1.1s-1.2-0.4-1.8-0.4H992.5z M1008.1,491.1
		c0-0.7-0.1-1.4-0.4-2c-0.2-0.7-0.6-1.2-1-1.7c-0.4-0.5-0.9-0.9-1.5-1.2c-0.6-0.3-1.2-0.4-1.9-0.4h-10.9v10.6h10.6
		c0.7,0,1.4-0.1,2-0.4s1.1-0.7,1.6-1.1c0.5-0.5,0.8-1,1.1-1.7C1008,492.4,1008.1,491.8,1008.1,491.1z"/>
	<path class="st3" d="M1020.1,499.7v-30.8h3.9v27.3h17.1v3.5H1020.1z"/>
	<path class="st3" d="M1068.1,496.2v3.5h-20.8v-30.8h20.4v3.5h-16.5v10h14.3v3.3h-14.3v10.6H1068.1z"/>
	<path class="st3" d="M1101.7,499.7v-23.8l-10.2,18.3h-2.2l-10.2-18.3v23.8h-3.9v-30.8h4.1l11.1,20l11.1-20h4.1v30.8H1101.7z"/>
	<path class="st3" d="M1133.4,475.4c-0.3-0.4-0.8-0.8-1.4-1.2c-0.6-0.4-1.2-0.7-1.9-1c-0.7-0.3-1.5-0.5-2.3-0.7
		c-0.8-0.2-1.7-0.3-2.6-0.3c-2.4,0-4.1,0.4-5.2,1.3c-1.1,0.9-1.7,2.1-1.7,3.7c0,0.8,0.2,1.5,0.5,2.1c0.3,0.5,0.8,1,1.5,1.4
		c0.7,0.4,1.5,0.7,2.5,1c1,0.3,2.2,0.6,3.6,0.9c1.6,0.3,3,0.7,4.3,1.2c1.3,0.4,2.4,1,3.3,1.7c0.9,0.7,1.6,1.5,2.1,2.4
		c0.5,1,0.7,2.1,0.7,3.5c0,1.5-0.3,2.8-0.9,3.8c-0.6,1.1-1.4,2-2.3,2.7c-1,0.7-2.2,1.2-3.5,1.6s-2.8,0.5-4.4,0.5
		c-2.4,0-4.6-0.4-6.7-1.1c-2.1-0.7-4-1.8-5.8-3.2l1.8-3.3c0.5,0.5,1.1,1,1.8,1.5c0.7,0.5,1.6,0.9,2.5,1.3c0.9,0.4,1.9,0.7,3,1
		c1.1,0.2,2.2,0.4,3.4,0.4c2.2,0,3.9-0.4,5.1-1.2c1.2-0.8,1.8-2,1.8-3.5c0-0.9-0.2-1.6-0.6-2.2c-0.4-0.6-1-1.1-1.7-1.5
		c-0.7-0.4-1.7-0.8-2.8-1.1c-1.1-0.3-2.4-0.7-3.8-1c-1.6-0.4-2.9-0.8-4.1-1.2c-1.2-0.4-2.2-1-3-1.6c-0.8-0.6-1.4-1.3-1.8-2.2
		c-0.4-0.9-0.6-1.9-0.6-3.1c0-1.5,0.3-2.8,0.8-3.9c0.5-1.1,1.3-2.1,2.3-2.9c1-0.8,2.1-1.4,3.5-1.8c1.3-0.4,2.8-0.6,4.4-0.6
		c2.1,0,3.9,0.3,5.6,1c1.7,0.6,3.1,1.5,4.4,2.6L1133.4,475.4z"/>
	<path class="st3" d="M1155.7,484.1c0-1.8,0.3-3.7,1-5.5c0.6-1.8,1.6-3.5,2.8-4.9c1.2-1.5,2.8-2.6,4.6-3.5c1.8-0.9,3.9-1.3,6.2-1.3
		c2.7,0,5.1,0.6,7,1.9c2,1.2,3.4,2.9,4.4,4.9l-3.1,2c-0.5-1-1-1.8-1.7-2.5c-0.6-0.7-1.3-1.2-2.1-1.6c-0.8-0.4-1.5-0.7-2.3-0.9
		c-0.8-0.2-1.6-0.3-2.4-0.3c-1.7,0-3.2,0.4-4.5,1.1c-1.3,0.7-2.4,1.6-3.3,2.8c-0.9,1.1-1.6,2.4-2,3.9c-0.4,1.4-0.7,2.9-0.7,4.3
		c0,1.6,0.3,3.2,0.8,4.6c0.5,1.5,1.3,2.8,2.2,3.9c0.9,1.1,2.1,2,3.4,2.7c1.3,0.7,2.7,1,4.2,1c0.8,0,1.6-0.1,2.5-0.3
		c0.8-0.2,1.7-0.5,2.4-1c0.8-0.4,1.5-1,2.2-1.7c0.7-0.7,1.2-1.5,1.7-2.4l3.2,1.8c-0.5,1.2-1.2,2.2-2,3.1c-0.9,0.9-1.9,1.6-3,2.2
		c-1.1,0.6-2.3,1.1-3.5,1.4c-1.2,0.3-2.4,0.5-3.6,0.5c-2.1,0-4-0.5-5.8-1.4c-1.8-0.9-3.3-2.1-4.5-3.6c-1.3-1.5-2.3-3.2-3-5.1
		C1156.1,488,1155.7,486.1,1155.7,484.1z"/>
	<path class="st3" d="M1189.3,499.7v-30.8h3.9v27.3h17.1v3.5H1189.3z"/>
	<path class="st3" d="M1216.6,499.7v-30.8h3.9v30.8H1216.6z"/>
	<path class="st3" d="M1234.1,476.2v23.5h-3.9v-30.8h3l19,24V469h3.9v30.7h-3.3L1234.1,476.2z"/>
	<path class="st3" d="M1265.8,499.7v-30.8h3.9v30.8H1265.8z"/>
	<path class="st3" d="M1277.5,484.1c0-1.8,0.3-3.7,1-5.5c0.6-1.8,1.6-3.5,2.8-4.9c1.2-1.5,2.8-2.6,4.6-3.5c1.8-0.9,3.9-1.3,6.2-1.3
		c2.7,0,5.1,0.6,7,1.9c2,1.2,3.4,2.9,4.4,4.9l-3.1,2c-0.5-1-1-1.8-1.7-2.5c-0.6-0.7-1.3-1.2-2.1-1.6c-0.8-0.4-1.5-0.7-2.3-0.9
		c-0.8-0.2-1.6-0.3-2.4-0.3c-1.7,0-3.2,0.4-4.5,1.1c-1.3,0.7-2.4,1.6-3.3,2.8c-0.9,1.1-1.6,2.4-2,3.9c-0.4,1.4-0.7,2.9-0.7,4.3
		c0,1.6,0.3,3.2,0.8,4.6c0.5,1.5,1.3,2.8,2.2,3.9c0.9,1.1,2.1,2,3.4,2.7c1.3,0.7,2.7,1,4.2,1c0.8,0,1.6-0.1,2.5-0.3
		c0.8-0.2,1.7-0.5,2.4-1c0.8-0.4,1.5-1,2.2-1.7c0.7-0.7,1.2-1.5,1.7-2.4l3.2,1.8c-0.5,1.2-1.2,2.2-2,3.1c-0.9,0.9-1.9,1.6-3,2.2
		c-1.1,0.6-2.3,1.1-3.5,1.4c-1.2,0.3-2.4,0.5-3.6,0.5c-2.1,0-4-0.5-5.8-1.4c-1.8-0.9-3.3-2.1-4.5-3.6c-1.3-1.5-2.3-3.2-3-5.1
		C1277.9,488,1277.5,486.1,1277.5,484.1z"/>
</g>
<line class="st1" x1="322.7" y1="420.5" x2="1309" y2="420.5"/>
</svg>
