<svg xmlns="http://www.w3.org/2000/svg" viewBox="0 0 135.75 230.01"><defs><style>.cls-1{fill:#333;}</style></defs><title>4</title><g id="Layer_2" data-name="Layer 2"><g id="Layer_1-2" data-name="Layer 1"><path class="cls-1" d="M58.85,1.6A41.66,41.66,0,0,1,101,13.75c6,6.77,9,15.7,10.44,24.5,2.15,14.22.07,28.7-3.37,42.54-.27,3.77-6.88,2.78-5.79-1,2.66-14.48,5.54-29.47,2.35-44.12-2-10-7.76-19.7-16.88-24.73C78.36,5.52,66.57,5.13,56.44,8.83c5,4.74,10.22,9.73,12.32,16.5,4.42,11.72.61,24.5,3.57,36.48,2.07,8.59,5.35,17.48,12.1,23.53,4.35,4.06,9.79,7.26,15.81,7.85,4.91.5,9.83,2,14.78.95,2.38-.26,6.05-1.18,7.24,1.69,1.1,2-1.09,3.71-2.83,4.21-3.2.76-6.52.4-9.76.62A402.75,402.75,0,0,1,134.82,149c2.56,5.7-.65,11.83-4,16.42-8.88,11.64-20.8,20.43-32.7,28.75,4.14,11.14,3.21,24.7-4.62,34-1.87,2.36-6.51-.2-4.84-3.05,2.66-5.83,6.42-11.67,5.79-18.37-.76-10.87-7.66-19.91-14.62-27.77-1.84-2.29-4.41-4.22-5.11-7.21a41.77,41.77,0,0,1-2.07-10c-.7-9.81-1.38-19.73.22-29.48a107.56,107.56,0,0,1,7.46-26.92A16.7,16.7,0,0,1,88,111.76c9.39,13.39,19.65,26.38,32.21,37,1.9,1.91,4.79.49,7.15.67.51,3.3-1.43,6-4.25,7.47a83.92,83.92,0,0,0-28.64,32.08c11-7.25,21.57-15.53,30.11-25.67,2.65-3.44,6.17-7.83,4.1-12.4a394.2,394.2,0,0,0-25.22-48.41c-1-2.29-3.91-2.32-6-3.16C91,97.6,84.75,94.65,79.94,89.95A54.17,54.17,0,0,1,68.7,72.33c-3.62-10.43-4.43-21.62-3.84-32.58S59.63,17.16,49.12,12.92c-2,3.36-4.25,6.72-5.27,10.57-1,3.7.31,7.56-.55,11.29a33.79,33.79,0,0,1-2.84,7.34c1.54,5,3,10.56,7,14.28,3.9.83,7.81-1.36,11.69-.43,1.86.34,2.34,2.36,2.88,3.88,2.62,8.41,2.21,18.35-3.27,25.57-4.55,6-10,11.33-15.1,16.87-5.72,5.34-10.6,12.46-10.88,20.51-.68,5.58,6.19,7.82,6.91,13.07-1,2-3.28,2.57-5.06,3.58a60.82,60.82,0,0,0-22,17.72,35.14,35.14,0,0,0-5.62,19.61A32.93,32.93,0,0,0,20,202.73c5.12,3.84,11,6.41,16.8,9.14a99.31,99.31,0,0,0,6,15.3c-1.26,1.42-2.61,3.35-4.81,2.73-3.51-3.9-4.86-9.13-7.07-13.78-8.83-3.87-17.52-9-23.2-17C3.41,192.89-.89,185.66.16,177.74c.55-12.83,6.2-25.46,16.09-33.78a89.61,89.61,0,0,1,14.09-9.77c-4-6.7-5-15.46-1.29-22.51C34.77,100,45.61,92.17,53.37,82c4.29-5.39,4.61-12.82,3-19.26-4-.21-8,.51-11.9-.54-6.88-5.42-9.65-14.46-10.37-22.89,5.13-5.81,2-13.94,4.25-20.72a34.44,34.44,0,0,0-8.89,20.11c-1.61,15.9,3.66,31.34,8.87,46.1,1.92,3.38-4.61,5.64-5.61,2.17-6.57-16.15-11.45-33.71-9.17-51.29C25.08,24.83,31.26,14,41.47,9.22,47.24,6.64,52.79,3.49,58.85,1.6ZM79.69,165.72c2.49,6.17,6.63,11.47,11,16.47,7.37-10.43,15.19-20.84,25.54-28.52C103.41,142.86,93,129.68,83,116.34,77.63,132.17,77.59,149.29,79.69,165.72Z"/></g></g></svg>