<svg xmlns="http://www.w3.org/2000/svg" viewBox="0 0 82.57 146.28"><defs><style>.cls-1{fill:#252d35;}</style></defs><title>ico4</title><g id="Layer_2" data-name="Layer 2"><g id="svg2"><g id="g10"><g id="g12"><g id="g14"><g id="g290"><path id="path292" class="cls-1" d="M82.57,41.25a41.36,41.36,0,0,1-7,23.12,2,2,0,1,1-3.25-2.19A37.41,37.41,0,1,0,3.85,41.25,37.7,37.7,0,0,0,25,75a1.95,1.95,0,1,1-1.66,3.52A41.3,41.3,0,1,1,82.57,41.25"/></g><g id="g294"><path id="path296" class="cls-1" d="M70.95,41.25a29.18,29.18,0,0,1-3,13,1.95,1.95,0,1,1-3.52-1.66A25.31,25.31,0,0,0,67,41.32,25.84,25.84,0,1,0,26.31,62.44,2,2,0,0,1,24,65.63a29.73,29.73,0,1,1,46.9-24.38"/></g><g id="g298"><path id="path300" class="cls-1" d="M39.79,82.37a.81.81,0,0,0,.8.8h1.26a.81.81,0,0,0,.8-.8V79.71a4.69,4.69,0,0,1,3.52-4.52c.07,0,.13-.07.27-.07A4.77,4.77,0,0,0,49.22,73a4.18,4.18,0,0,0,.27-3.45L45.64,57.06a4.58,4.58,0,0,0-8.77,0L33,69.55A4.4,4.4,0,0,0,33.28,73a4.53,4.53,0,0,0,2.79,2.13c.07,0,.13.07.27.07a4.69,4.69,0,0,1,3.52,4.52v2.66ZM53.61,70.95a8,8,0,0,1-1,3.92,8.71,8.71,0,0,1-5.11,4.05c-.07,0-.2.07-.27.07a.8.8,0,0,0-.6.8v2.66a4.73,4.73,0,0,1-4.72,4.72H40.65a4.73,4.73,0,0,1-4.72-4.72V79.78a.86.86,0,0,0-.6-.8c-.07,0-.2-.07-.27-.07A8.24,8.24,0,0,1,30,74.87a8.46,8.46,0,0,1-.6-6.51l3.85-12.49a8.48,8.48,0,0,1,16.21,0l3.85,12.49a11.09,11.09,0,0,1,.33,2.59"/></g><g id="g302"><path id="path304" class="cls-1" d="M43.71,85.63A13.52,13.52,0,0,1,41.05,94a10.7,10.7,0,0,0,0,12.62A13.68,13.68,0,0,1,43.71,115a13.52,13.52,0,0,1-2.66,8.37,10.7,10.7,0,0,0,0,12.62,13.68,13.68,0,0,1,2.66,8.37,1.93,1.93,0,0,1-3.85,0A9.92,9.92,0,0,0,37.8,138a13.68,13.68,0,0,1-2.66-8.37,13.53,13.53,0,0,1,2.66-8.37,10.7,10.7,0,0,0,0-12.62,13.68,13.68,0,0,1-2.66-8.37,13.52,13.52,0,0,1,2.66-8.37,9.92,9.92,0,0,0,2.06-6.31,1.93,1.93,0,0,1,1.93-1.93,1.89,1.89,0,0,1,1.93,1.93"/></g><g id="g306"><path id="path308" class="cls-1" d="M63.17,79.58a3.56,3.56,0,0,1,2.59-2.92l.13-.07a1.82,1.82,0,0,0,1.06-.8A1.53,1.53,0,0,0,67,74.47l-2.13-7a1.75,1.75,0,0,0-3.32,0l-2.13,7a1.83,1.83,0,0,0,.07,1.33,1.64,1.64,0,0,0,1.06.8l.13.07a3.61,3.61,0,0,1,2.46,2.92m7.77-4.45a5,5,0,0,1-.67,2.59A5.65,5.65,0,0,1,67,80.38v1.2a3.54,3.54,0,0,1-3.52,3.52h-.73a3.54,3.54,0,0,1-3.52-3.52v-1.2a5.52,5.52,0,0,1-3.65-7l2.13-7a5.56,5.56,0,0,1,5.38-4,5.48,5.48,0,0,1,5.38,4l2.13,7a4,4,0,0,1,.33,1.73"/></g><g id="g310"><path id="path312" class="cls-1" d="M65.37,83.37a8.47,8.47,0,0,1-1.66,5.18,5.19,5.19,0,0,0,0,6.11,8.91,8.91,0,0,1,0,10.36,5.19,5.19,0,0,0,0,6.11,8.46,8.46,0,0,1,1.66,5.18,1.93,1.93,0,1,1-3.85,0,4.8,4.8,0,0,0-1-3.05,8.92,8.92,0,0,1,0-10.36,5.19,5.19,0,0,0,0-6.11,8.92,8.92,0,0,1,0-10.36,4.81,4.81,0,0,0,1-3.06,1.93,1.93,0,0,1,3.85,0"/></g><g id="g314"><path id="path316" class="cls-1" d="M18.33,98.38a3.56,3.56,0,0,1,2.59-2.92l.13-.07a1.83,1.83,0,0,0,1.06-.8,1.53,1.53,0,0,0,.07-1.33l-2.13-7A1.62,1.62,0,0,0,18.4,85a1.62,1.62,0,0,0-1.66,1.2l-2.13,7a1.81,1.81,0,0,0,.07,1.33,1.65,1.65,0,0,0,1.06.8l.13.07a3.53,3.53,0,0,1,2.46,2.92m7.77-4.52a5,5,0,0,1-.66,2.59,5.65,5.65,0,0,1-3.25,2.66v1.2a3.54,3.54,0,0,1-3.52,3.52h-.73a3.54,3.54,0,0,1-3.52-3.52v-1.2a5.52,5.52,0,0,1-3.65-7l2.13-7a5.56,5.56,0,0,1,5.38-4,5.48,5.48,0,0,1,5.38,4l2.13,7a4.19,4.19,0,0,1,.33,1.73"/></g><g id="g318"><path id="path320" class="cls-1" d="M20.53,102.17a8.48,8.48,0,0,1-1.66,5.18,5.19,5.19,0,0,0,0,6.11,8.91,8.91,0,0,1,0,10.36,5.19,5.19,0,0,0,0,6.11,8.47,8.47,0,0,1,1.66,5.18,1.93,1.93,0,0,1-3.85,0,4.81,4.81,0,0,0-1-3.05,8.91,8.91,0,0,1,0-10.36,5.18,5.18,0,0,0,0-6.11,8.91,8.91,0,0,1,0-10.36,4.81,4.81,0,0,0,1-3.06,1.93,1.93,0,0,1,3.85,0"/></g><g id="g322"><path id="path324" class="cls-1" d="M35.61,25.11A2.86,2.86,0,1,1,38.46,28a2.86,2.86,0,0,1-2.86-2.86"/></g><g id="g326"><path id="path328" class="cls-1" d="M24.18,36.47A2.86,2.86,0,1,1,27,39.33a2.86,2.86,0,0,1-2.86-2.86"/></g><g id="g330"><path id="path332" class="cls-1" d="M50.82,27.1A2.86,2.86,0,1,1,53.67,30a2.86,2.86,0,0,1-2.86-2.86"/></g><g id="g334"><path id="path336" class="cls-1" d="M54.74,39.86a2.86,2.86,0,1,1,2.86,2.86,2.86,2.86,0,0,1-2.86-2.86"/></g></g></g></g></g></g></svg>