<svg xmlns="http://www.w3.org/2000/svg" viewBox="0 0 57.33 131.35"><defs><style>.cls-1{fill:#252d35;}</style></defs><title>ico3</title><g id="Layer_2" data-name="Layer 2"><g id="svg2"><g id="g10"><g id="g12"><g id="g14"><g id="g338"><path id="path340" class="cls-1" d="M3.48,3.41C4.3,16.4,11.75,24.49,20,31.13a0,0,0,0,0,.06,0c1.5-1.15,3-2.3,4.49-3.39.41-.29.87-.64,1.33-1-7.75-6-14.4-12.55-15.29-23.35a0,0,0,0,0,0,0h-7A0,0,0,0,0,3.48,3.41ZM20,35a1.73,1.73,0,0,1-1-.35c-4-3.19-9.09-7.53-12.91-13.2A35.61,35.61,0,0,1,0,1.74,1.86,1.86,0,0,1,.46.52,1.57,1.57,0,0,1,1.68,0H12.1a1.68,1.68,0,0,1,1.68,1.68c.23,11.12,7.3,17.37,15.81,23.8a1.79,1.79,0,0,1,.69,1.33,1.55,1.55,0,0,1-.69,1.33c-1,.81-2.14,1.62-3.13,2.37-1.8,1.33-3.65,2.72-5.5,4.17A1.46,1.46,0,0,1,20,35"/></g><g id="g342"><path id="path344" class="cls-1" d="M46.68,127.93h7a0,0,0,0,0,0-.05c-.83-13-8.27-21.08-16.47-27.72a0,0,0,0,0-.06,0c-1.48,1.14-3,2.28-4.45,3.36l-.06,2c7.19,5.75,13.21,12.2,14,22.36m8.86,3.42H45.11a1.68,1.68,0,0,1-1.68-1.68c-.23-11.12-7.3-17.37-15.81-23.8a1.8,1.8,0,0,1-.7-1.33,1.55,1.55,0,0,1,.7-1.33c1-.81,2.08-1.56,3.13-2.37,1.8-1.33,3.65-2.72,5.5-4.17a1.74,1.74,0,0,1,2.08,0c4,3.19,9.09,7.53,12.91,13.21a35.6,35.6,0,0,1,6,19.75,1.87,1.87,0,0,1-.46,1.22,1.9,1.9,0,0,1-1.27.52"/></g><g id="g346"><path id="path348" class="cls-1" d="M3.47,127.93h7a0,0,0,0,0,0,0c.94-11.61,8.58-18.32,17-24.74,1-.81,2.08-1.56,3.13-2.37,1.8-1.33,3.65-2.72,5.5-4.17,9.15-7.24,17.61-16,17.61-31,0-14.4-7.8-23.09-16.59-30.15a0,0,0,0,0-.06,0c-1.5,1.15-3,2.3-4.49,3.39-.41.29-.87.64-1.33,1,8.28,6.49,15.35,13.55,15.35,25.77,0,13-8.11,20.27-17.14,27.1-1,.81-2.14,1.62-3.13,2.37-1.79,1.33-3.65,2.72-5.5,4.17-8.51,6.89-16.62,15.11-17.43,28.67m8.69,3.42H1.74a1.67,1.67,0,0,1-1.22-.52,1.62,1.62,0,0,1-.46-1.22,35.74,35.74,0,0,1,6-19.75A57.3,57.3,0,0,1,19,96.65c1.85-1.51,3.76-2.89,5.56-4.23,1-.69,2.09-1.56,3.13-2.32,8.63-6.54,15.81-12.91,15.81-24.44S36.37,47.78,27.68,41.23A1.79,1.79,0,0,1,27,39.9a1.55,1.55,0,0,1,.7-1.33c1-.81,2.14-1.62,3.13-2.37,1.8-1.33,3.65-2.72,5.5-4.17a1.74,1.74,0,0,1,2.09,0c4.05,3.24,9.27,7.64,13,13.43a35.83,35.83,0,0,1,5.91,20.21,35.64,35.64,0,0,1-5.91,20.21c-3.76,5.79-9,10.25-13,13.43-1.85,1.45-3.76,2.9-5.56,4.23-1,.75-2.08,1.56-3.13,2.32-8.51,6.43-15.52,12.68-15.81,23.8a1.77,1.77,0,0,1-1.74,1.68"/></g><g id="g350"><path id="path352" class="cls-1" d="M46.72,3.36a0,0,0,0,0,0,0c-.94,11.61-8.58,18.32-17,24.74-1,.81-2.14,1.62-3.13,2.37-1.8,1.33-3.65,2.72-5.5,4.17-9.15,7.24-17.61,16-17.61,31,0,14.4,7.8,23.09,16.59,30.15a0,0,0,0,0,.06,0c1.5-1.15,3-2.3,4.49-3.39.41-.29.87-.64,1.33-1C17.61,85,10.54,77.89,10.54,65.67c0-13,8.11-20.27,17.14-27.1,1-.81,2.14-1.62,3.13-2.37,1.79-1.33,3.65-2.72,5.5-4.17C45,25.2,53,17,53.86,3.41a0,0,0,0,0,0-.05ZM20,99.67a1.73,1.73,0,0,1-1-.35c-4.05-3.24-9.27-7.65-13-13.44A35.82,35.82,0,0,1,0,65.67,35.63,35.63,0,0,1,5.91,45.46c3.76-5.79,9-10.25,13-13.44,1.85-1.45,3.76-2.9,5.56-4.23,1-.69,2.09-1.56,3.13-2.32,8.51-6.43,15.52-12.68,15.81-23.8A1.68,1.68,0,0,1,45.11,0H55.54a1.66,1.66,0,0,1,1.22.52,1.61,1.61,0,0,1,.46,1.22,35.75,35.75,0,0,1-6,19.75,57.34,57.34,0,0,1-12.91,13.2c-1.85,1.45-3.77,2.9-5.56,4.23-1,.7-2.09,1.56-3.13,2.32C21,47.78,13.78,54.15,13.78,65.67s7.12,17.9,15.81,24.44a1.8,1.8,0,0,1,.69,1.33,1.55,1.55,0,0,1-.69,1.33c-1,.81-2.14,1.62-3.13,2.37-1.79,1.33-3.65,2.72-5.5,4.17a1.46,1.46,0,0,1-1,.35"/></g><g id="g354"><path id="path356" class="cls-1" d="M38.92,51.48H18.37A1.77,1.77,0,0,1,16.58,50a1.68,1.68,0,0,1,1.66-1.92H38.79a1.77,1.77,0,0,1,1.81,1.62,1.65,1.65,0,0,1-1.68,1.74"/></g><g id="g358"><path id="path360" class="cls-1" d="M44.48,62.08H12.93a1.77,1.77,0,0,1-1.79-1.43,1.68,1.68,0,0,1,1.66-1.93H44.35a1.77,1.77,0,0,1,1.79,1.43,1.68,1.68,0,0,1-1.66,1.93"/></g><g id="g362"><path id="path364" class="cls-1" d="M44.48,72.68H12.92a1.77,1.77,0,0,1-1.79-1.43,1.68,1.68,0,0,1,1.66-1.92H44.35a1.77,1.77,0,0,1,1.79,1.43,1.68,1.68,0,0,1-1.66,1.93"/></g><g id="g366"><path id="path368" class="cls-1" d="M39.09,83.22H18.26a1.77,1.77,0,0,1-1.79-1.43,1.68,1.68,0,0,1,1.66-1.93h21a1.68,1.68,0,0,1,1.68,1.68,1.64,1.64,0,0,1-1.68,1.68"/></g><g id="g370"><path id="path372" class="cls-1" d="M38.92,116H18.37a1.77,1.77,0,0,1-1.79-1.43,1.68,1.68,0,0,1,1.66-1.93H38.92a1.68,1.68,0,0,1,1.68,1.68A1.61,1.61,0,0,1,38.92,116"/></g><g id="g374"><path id="path376" class="cls-1" d="M44.48,126.6H12.93a1.77,1.77,0,0,1-1.79-1.43,1.68,1.68,0,0,1,1.66-1.93H44.35a1.77,1.77,0,0,1,1.79,1.43,1.68,1.68,0,0,1-1.66,1.92"/></g><g id="g378"><path id="path380" class="cls-1" d="M44.48,8.11H12.92a1.77,1.77,0,0,1-1.79-1.43A1.68,1.68,0,0,1,12.8,4.75H44.35a1.77,1.77,0,0,1,1.79,1.43,1.68,1.68,0,0,1-1.66,1.93"/></g><g id="g382"><path id="path384" class="cls-1" d="M39.09,18.71H18.26a1.77,1.77,0,0,1-1.79-1.43,1.68,1.68,0,0,1,1.66-1.93H39a1.77,1.77,0,0,1,1.79,1.43,1.68,1.68,0,0,1-1.66,1.93"/></g></g></g></g></g></g></svg>