<svg xmlns="http://www.w3.org/2000/svg" viewBox="0 0 112.59 211.93"><defs><style>.cls-1{fill:#333;}</style></defs><title>3</title><g id="Layer_2" data-name="Layer 2"><g id="Layer_1-2" data-name="Layer 1"><path class="cls-1" d="M2.36,7c1.82-3,4.84-5.63,8.46-6.11C20.4-.43,30.07.57,39.69.35,47-.24,54.38.89,61.72,0,74.07.85,86.46-.21,98.81.5a12.68,12.68,0,0,1,11.34,6.28c4,7.19,3.44,18.52-4.4,22.9-1.76,1.12-3.54,2.21-5.27,3.37-.61,12.42.72,24.84,0,37.26.06,28-.16,56,0,84.05-.18,7.63.54,15.29-.61,22.87.36,7,2.5,15.48-3,21.14-6.3,6.46-15.08,10.23-23.93,11.51-7.33,1.05-14.75,3-22.16,1.55-12-1.12-25-3.48-34-12.22-3.17-2.74-4.47-7-4.56-11,0-51.82.09-103.65,0-155.47C1.26,30.15-3.11,16.09,2.36,7ZM12.78,8.45C6.19,10.36,6.15,22.3,12.92,24c28.27.33,56.57,0,84.85.13,2.39-.11,5.36-1,6.19-3.49a18.93,18.93,0,0,0,0-8.57c-.44-2.43-3.09-3.47-5.28-3.61-7.31-.47-14.63,0-21.94-.12C55.44,8.42,34.1,8.16,12.78,8.45Zm7.51,24q-.09,14-.1,28.08,36.07,0,72.15,0c0-9.24.06-18.49.12-27.73-20.86,0-41.74-.32-62.61.11C26.66,32.71,23.48,32.54,20.29,32.42Zm-.07,155.91c.19,4.58,4.28,7.67,8.06,9.55,10.05,4.73,21.43,6.16,32.45,5.59,9.41-.83,19.37-2.24,27.24-7.91,2.41-1.61,4.37-4.19,4.3-7.2.7-24-.66-48,.18-72-.2-16.12,0-32.24-.09-48.37H20.13C20.07,108.11,20.2,148.22,20.22,188.33Z"/><path class="cls-1" d="M31.07,85.76c9.07-10.93,28.81-9,35.48,3.6,4.9,7.52,3.06,17.21-1,24.68,2.61,2.69,5.12,5.49,7.48,8.42,0-2.91,0-5.82,0-8.72h5.34q0,8.84,0,17.68c-5.92-.08-11.84-.13-17.76-.1,0-1.78,0-3.56,0-5.33h7.54q-3.57-3.72-7-7.53c-7.08,3.77-16.06,6.09-23.46,1.85C25,114.6,21.42,95.78,31.07,85.76Zm11.79-.38c-4.36,1.54-8.35,4.74-9.9,9.21-3,7.53.42,17.29,8.18,20.34,9.79,5.13,22.73-3.83,22.24-14.64C63.46,90.3,52.32,82.24,42.86,85.38Z"/><path class="cls-1" d="M27.65,141.46q2-2.16,4.09-4.3,2.84,2.85,5.72,5.67c2-1.87,3.92-3.75,5.89-5.61,1.05,1.66,2.08,3.33,3.12,5l-4.09,5.29,4,4c4.7-2.41,9.9-4.19,15.26-3.79A21.08,21.08,0,0,1,80.2,161.65c2.94,8,1.11,17.91-5.42,23.7-9.13,9.18-26.4,7.18-33.21-3.82-5.36-7.53-4-17.75.27-25.44l-4.06-4.33c-1.87,1.69-3.73,3.38-5.58,5.09l-4.27-4.43c1.73-1.68,3.47-3.34,5.21-5Zm28.61,12.59a16.19,16.19,0,0,0-12.06,15.3c-.41,8.29,7.22,16.05,15.53,15.65,7.23-.1,14.41-5.39,15.49-12.76C77.65,161.77,66.49,151.46,56.26,154.05Z"/></g></g></svg>