<svg xmlns="http://www.w3.org/2000/svg" viewBox="0 0 66.08 146.67"><defs><style>.cls-1{fill:#252d35;}</style></defs><title>ico2</title><g id="Layer_2" data-name="Layer 2"><g id="svg2"><g id="g10"><g id="g12"><g id="g14"><g id="g274"><path id="path276" class="cls-1" d="M39.37,146.67a1.71,1.71,0,0,1-1.71-1.47c0-.06-1.3-8.25-2.65-14.67a1.74,1.74,0,0,1,.88-1.88c.59-.3,1.24-.59,1.83-.94,7.89-3.89,14.73-7.24,17-21.85a19.87,19.87,0,0,0-5-16.9,26,26,0,0,0-7-5.54,1.66,1.66,0,0,1-.94-1.35,1.71,1.71,0,0,1,.59-1.53c3.47-3,5.07-5.54,4.95-7.77-.24-3.48-4.77-6.77-9.54-9.84C29.65,57.73,27.71,47.3,27.71,45.59c0-.59,0-1.65,5.12-7.19a1.62,1.62,0,0,1,1.3-.53,1.74,1.74,0,0,1,1.3.65A15.08,15.08,0,0,0,42,43.06c5.3-1.47,9.31-7.6,10.43-11.55a1.71,1.71,0,1,1,3.3.94C54.39,37,49.56,44.89,42.31,46.53a1.65,1.65,0,0,1-.77,0,16.55,16.55,0,0,1-7.48-4.36,27.55,27.55,0,0,0-2.95,3.71c.24,1.47,1.77,10,8.48,14.25C46,64.26,50.44,67.92,50.74,72.63c.24,2.95-1.24,5.89-4.36,9.07a30.53,30.53,0,0,1,5.83,5A23.49,23.49,0,0,1,58.1,106.5c-2.53,16.37-10.84,20.5-18.91,24.44a3.1,3.1,0,0,1-.65.29c1.3,6.24,2.41,13.43,2.41,13.49a1.64,1.64,0,0,1-1.41,1.94Z"/></g><g id="g278"><path id="path280" class="cls-1" d="M21.17,31.69h0M4.56,142.6a1.74,1.74,0,0,1-1.59-1c-2.12-4.65-3.3-8.25-2.89-13s2.42-10.31,6.77-18.49c6-11.37,4.54-16.67,1.47-27.09C7.27,79.28,6,75,4.85,69.57c-1.88-8.78-1.12-16.2,2.24-22a22.75,22.75,0,0,1,7.83-8.07,3.51,3.51,0,0,1,.41-.24c1.41-1,5.36-6.42,5.83-7.48a1.75,1.75,0,0,1,2.12-1.12,1.71,1.71,0,0,1,1.18,2.12c-.41,1.41-5.07,7.83-7.13,9.31-.12.12-.29.18-.53.35C8.5,47.71,5.68,56.61,8.27,68.86c1.12,5.3,2.36,9.54,3.42,13.25,1.53,5.42,2.77,9.66,2.77,14.19,0,4.77-1.41,9.54-4.54,15.49-8.19,15.49-7.54,20.32-3.83,28.39a1.75,1.75,0,0,1-.82,2.3,3,3,0,0,1-.71.12"/></g><g id="g282"><path id="path284" class="cls-1" d="M20.11,108.68a1,1,0,0,1-.41-.06c-1.12-.29-2.41-1.24-4.12-6.6a88.85,88.85,0,0,1-2.83-12.6c-1.89-11.37-2.42-22.5-1.3-29.75a1.72,1.72,0,0,1,3.42.47c-1,6.6-.59,16.91,1.12,27.57a104.48,104.48,0,0,0,2.59,12.13,20,20,0,0,0,2.06,5.3c5.6-.77,16.26-8.07,20-11A1.72,1.72,0,0,1,42.37,94s.71.35,4.3,1.94c2.24.94,3.89,1.18,4.59.59s.77-2.36.59-3.48a18,18,0,0,0-8.07-3.47c-4.89,2-16.9,7.42-17.08,7.48A1.82,1.82,0,0,1,25.06,97a1.73,1.73,0,0,1-.77-1.41,209.59,209.59,0,0,1,1.35-21.79c1.88-15.73-1.35-19.26-3.3-21.38-.12-.12-.18-.24-.29-.35a1.71,1.71,0,0,1,2.53-2.3l.3.29a14.84,14.84,0,0,1,3.77,6.77c1.18,4.18,1.29,9.9.41,17.38-.94,7.89-1.24,15-1.3,18.73,3.95-1.77,11.66-5.18,15.14-6.6a1.88,1.88,0,0,1,.83-.12,20.56,20.56,0,0,1,10.84,4.77,2.23,2.23,0,0,1,.53.88c.12.53,1.06,5.12-1.65,7.42-1.83,1.53-4.59,1.47-8.19-.06H45.2c-1.65-.77-2.71-1.24-3.36-1.53-1.35,1-4.12,2.95-7.42,5-6.24,3.89-11,5.89-14.25,6.07,0-.06,0-.06-.06-.06"/></g><g id="g286"><path id="path288" class="cls-1" d="M10.27,47.65A1.67,1.67,0,0,1,9,47.07a1.69,1.69,0,0,1,.12-2.42C11.8,42.24,14.34,36,14.69,31c0-.29.06-.59.06-.88.35-6.36,1.35-23.27,19.2-28.92,9.9-3.12,16.37.53,20.09,4.12A24.15,24.15,0,0,1,59.34,13a11.28,11.28,0,0,1,5.12,4.77,10.23,10.23,0,0,1,1.3,8,9.85,9.85,0,0,1-7.07,7.13c-3,.94-6.6.94-10.07.94-4.36,0-8.83.06-11.49,2a1.68,1.68,0,0,1-2.06,0,1.72,1.72,0,0,1-.65-.94c-3.3,3.18-6,6.66-6.42,11.07a1.7,1.7,0,0,1-1.3,1.53,1.74,1.74,0,0,1-1.89-.77c-2.24-3.65-4.42-16.31-3.53-20.56a1.74,1.74,0,1,1,3.42.71c-.47,2.3.29,8.6,1.41,13.25,2.12-4.42,6-7.89,9.54-11,.77-.71,1.53-1.35,2.24-2a1.74,1.74,0,0,1,2.41.06,1.8,1.8,0,0,1,.06,2.41,10.3,10.3,0,0,0-.88,1.59,39,39,0,0,1,9.19-.71C56.33,30.4,61,30,62.52,24.86a7.19,7.19,0,0,0-.94-5.24,7.74,7.74,0,0,0-3.83-3.48A1.6,1.6,0,0,1,56.51,15a21.13,21.13,0,0,0-4.83-7.25c-4.42-4.18-10-5.3-16.55-3.18C19.58,9.55,18.69,24.15,18.34,30.4c0,.35-.06.65-.06.94-.41,5.95-3.36,13-6.71,16a5.76,5.76,0,0,1-1.3.29"/></g></g></g></g></g></g></svg>