<svg xmlns="http://www.w3.org/2000/svg" viewBox="0 0 106.34 141.87"><title>ico1</title><g id="Layer_2" data-name="Layer 2"><g id="svg2"><g id="g10"><g id="g12"><g id="g14"><g id="g386"><path id="path388" d="M77.6,137.71A24.6,24.6,0,0,1,53,113.14V88.57H77.6a24.57,24.57,0,0,1,0,49.14M15.55,86.48a2.36,2.36,0,1,1-2.36-2.36,2.36,2.36,0,0,1,2.36,2.36m-2.36,9A9,9,0,1,1,22,84.4h-2.6a6.52,6.52,0,1,0,0,4.17H22a9,9,0,0,1-8.78,6.94M38,73H63.77a4.59,4.59,0,0,1-4.08,2.5H42.06A4.59,4.59,0,0,1,38,73M33.18,4.16H35.4a2.36,2.36,0,0,1,0,4.72H33.18a2.36,2.36,0,1,1,0-4.72m35.4,4.72H66.35a2.36,2.36,0,1,1,0-4.72h2.22a2.36,2.36,0,1,1,0,4.72m9,75.52H53V79.68h6.66a8.76,8.76,0,0,0,8.75-8.75c0-9.17,5.31-15.78,10.93-22.76,5.09-6.33,10.36-12.87,11.27-21.44.64-6-.78-11.3-4.09-15.31A20.11,20.11,0,0,0,74.83,4.67,6.54,6.54,0,0,0,68.57,0H66.35a6.52,6.52,0,1,0,0,13h2.22a6.53,6.53,0,0,0,6.08-4.17,15.75,15.75,0,0,1,8.67,5.19C86,17.25,87,21.36,86.49,26.29c-.78,7.35-5.44,13.14-10.37,19.27-5.44,6.76-11,13.74-11.77,23.29H37.4c-.72-9.55-6.33-16.53-11.77-23.29C20.7,39.43,16,33.64,15.26,26.29c-.53-4.93.54-9,3.16-12.22A15.76,15.76,0,0,1,27.1,8.88,6.53,6.53,0,0,0,33.18,13H35.4a6.52,6.52,0,1,0,0-13H33.18a6.54,6.54,0,0,0-6.26,4.67,20.11,20.11,0,0,0-11.71,6.75c-3.32,4-4.73,9.31-4.09,15.31C12,35.3,17.29,41.85,22.39,48.17c5.62,7,10.93,13.59,10.93,22.76a8.75,8.75,0,0,0,8.75,8.75h6.8V84.4H26.21a13.19,13.19,0,1,0,0,4.17H48.86v24.57A28.74,28.74,0,1,0,77.6,84.4"/></g></g></g></g></g></g></svg>