<svg xmlns="http://www.w3.org/2000/svg" viewBox="0 0 142.47 195.4"><defs><style>.cls-1{fill:#333;}</style></defs><title>1</title><g id="Layer_2" data-name="Layer 2"><g id="Layer_1-2" data-name="Layer 1"><path class="cls-1" d="M38.1,7.37c.16-4.49,4.8-7.59,9-7.32C63.83.21,80.53-.23,97.21.17,101.67.45,103.79,5,105,8.68c8.92.4,17.86-.26,26.78.27,5.74.3,10.4,5.74,10.39,11.39q.3,78.54.2,157.09c-.09,3.92.69,8.23-1.51,11.76a12.45,12.45,0,0,1-11.73,6.16c-37.35-.12-74.69.14-112,0-3.15-.1-6.45.37-9.47-.76A12.87,12.87,0,0,1,.11,182.43c.41-24.69-.2-49.39.13-74.08A364.07,364.07,0,0,0,.16,59.47C.35,46.8-.15,34.13,0,21.46c0-4.4,2.08-9,6.07-11.12,3.72-1.89,8-1.43,12.06-1.51,4.49.1,9-.28,13.49.39,3.11.09,3.37,5.47.49,6.07-7.16,1.31-14.49-.2-21.68.81-1.73.13-2.8,1.85-3.12,3.42-1,5.92-.47,11.94-.31,17.91Q7,110,7.17,182.5a5.28,5.28,0,0,0,4.89,6c39.41.11,78.83-.07,118.24-.09a5,5,0,0,0,5.2-4.94c0-51.34-.13-102.68-.08-154-.07-3.63.3-7.32-.51-10.88-1-2.75-4.32-2.9-6.76-2.93-8.35.2-16.75-.45-25.06.67,9.26,2.78,19,.64,28.41,1.32.63,49,.14,97.91.4,146.86-.17,6.16.48,12.36-.41,18.49-40.08.46-80.17,0-120.26.36-.81-8.28-.38-16.6-.49-24.9.1-27.34-.2-54.68,0-82-.16-6.67.66-13.33.22-20-1-12.8,1-25.6-.18-38.41,7.6.77,16.29-2.83,23,2.24-6.59,1.94-13.5,1-20.15,0-.55,12.4,1.52,24.8.21,37.19,1,40.69.44,81.39.51,122.09,38,.28,76-.1,114,0q-.13-46.58-.09-93.13c-.33-21.68.27-43.39-.3-65.07-7.56-.29-15.13-.07-22.69-.17-.77,3.15-1,6.61-3,9.33-2.44,2.92-6.62,2.84-10.09,2.88-15.36-.3-30.73.24-46.1-.14-3.78,0-7.56-2.91-7.89-6.78A130.39,130.39,0,0,1,38.1,7.37Zm7.11.09c-.29,5.31-1.22,10.71-.14,16,.42,1,.19,3.17,2,2.74,16.85.39,33.74.59,50.59-.23-.08-6.23.27-12.46-.31-18.67C89.93,6.43,82.51,7.05,75.11,7,65.14,7,55.15,6.44,45.21,7.46Z"/><path class="cls-1" d="M21.25,38.77q17.64,0,35.27,0c.64,14.94,0,29.9.32,44.85-11.9.66-23.82.33-35.72.21-.52-7.82.14-15.63.56-23.42C21.31,53.2,20.42,46,21.25,38.77Zm3.5,4.29a329.09,329.09,0,0,0,0,37c9.5.55,19,.2,28.52.05C53,67.55,53.3,55,53.06,42.35,43.62,42.75,34.12,41.34,24.75,43.06Z"/><path class="cls-1" d="M66.29,43.27c.69-1.53,1.87-3.1,3.76-2.87,10.7-.13,21.4,0,32.1-.06,6.14.11,12.34-.42,18.42.66l.36,2.45c-5.22.72-10.49.43-15.74.46C92.22,43.92,79.21,44.61,66.29,43.27Z"/><path class="cls-1" d="M65.4,55.63c2.08-1,4.23-2.26,6.65-2.14,14,0,28.06.08,42.09-.09a13.16,13.16,0,0,1,7.93,2.27c-5.78,2.11-12,1.33-18,1.41-10,0-20-.07-30,.1A23.88,23.88,0,0,1,65.4,55.63Z"/><path class="cls-1" d="M65.62,67.6c9.74-1.9,19.68-.69,29.52-.94,8.94.26,18-1,26.84,1-1.82,1.09-3.62,2.59-5.89,2.41-14.33.36-28.67-.1-43,.19A9.39,9.39,0,0,1,65.62,67.6Z"/><path class="cls-1" d="M67.89,79.92c14.41-.58,28.83.07,43.24-.33a28.92,28.92,0,0,1,11,1.52,15.25,15.25,0,0,1-10,2.3c-15.11-.61-30.26.76-45.35-.63Z"/><path class="cls-1" d="M20,94.27c.59-1.3,1.42-2.7,3.1-2.34,31-.78,62.1,0,93.14-.46,2.41-.34,4.14,1.35,5.47,3.11-28.16,1.08-56.35.39-84.51.58C31.47,94.92,25.59,96,20,94.27Z"/><path class="cls-1" d="M19.21,106.24a14.08,14.08,0,0,1,8-2.22c28.66.23,57.33-.16,86,0,2.33.09,4.76-.25,7,.52,1.39,1.4-.23,3.39-2,2.88-29.7.5-59.41,0-89.11.34A26.74,26.74,0,0,1,19.21,106.24Z"/><path class="cls-1" d="M19.25,118.16c4.41-1.81,9.24-1.84,13.93-1.67q41,.08,82-.08c2.43-.17,4.68.82,6.84,1.8-2.17,1-4.4,2.21-6.89,2-26.32-.09-52.64.12-79,.07C30.51,120.14,24.35,121.38,19.25,118.16Z"/><path class="cls-1" d="M19.52,142.55a45.67,45.67,0,0,1,9.61-1c29.69.22,59.39-.11,89.08,0,1.82-.35,2.55,1.42,3.27,2.7a36.12,36.12,0,0,1-8.29.9c-29.36-.32-58.72.28-88.08-.18C22.92,145.22,21.25,143.61,19.52,142.55Z"/><path class="cls-1" d="M21.2,157.18c-2.53-2.73,2.09-3.14,4-3.13,22.32-.15,44.65.08,67-.13,3-.21,5.93.37,8,2.59-8.25,1.88-16.72.8-25.09,1C57.16,157.3,39.15,158.2,21.2,157.18Z"/><path class="cls-1" d="M22.2,169.78c-3,.13-.93-3.62,1-3.25,15.34-.12,30.68.11,46-.12a43.41,43.41,0,0,1,9.9,1.09c-3.45,3.48-8.53,2.58-12.94,2.61C51.51,169.84,36.83,170.64,22.2,169.78Z"/><path class="cls-1" d="M19.62,130.22c6-1.75,12.34-1.13,18.53-1.22,27.13,0,54.26.08,81.39-.08.54,1.07,1.07,2.16,1.6,3.26-30.65,1-61.31.07-92,.57C25.85,132.8,22,132.94,19.62,130.22Z"/></g></g></svg>