<?xml version="1.0" encoding="utf-8"?>
<!-- Generator: Adobe Illustrator 21.1.0, SVG Export Plug-In . SVG Version: 6.00 Build 0)  -->
<svg version="1.1" xmlns="http://www.w3.org/2000/svg"
		viewBox="0 0 100 100" style="padding: 0; width: 25px; height: 25px;">
<style type="text/css">
	.st3{fill:#62AFAE; padding: 0;}
</style>
<g id="Layer_9"  stroke="2">
	<g>
		<path class="st3" d="M54.4,55.2c0.3-0.1,0.5-0.3,0.6-0.4c0.2-0.1,0.3-0.2,0.3-0.3c0.2-0.3,0.1-0.8-0.2-1.5c-0.3-0.7-0.6-1.1-1-1.3
			c-0.1-0.1-0.3-0.1-0.5-0.1c-0.2,0-0.5,0.2-0.9,0.4c0.5,0.4,0.8,0.9,1.1,1.5C54.1,54,54.3,54.6,54.4,55.2z M48.9,46.3
			c0.2-0.2,0.4-0.4,0.5-0.5c0.1-0.1,0.2-0.3,0.3-0.4c0.1-0.3,0-0.6-0.3-1.1c-0.3-0.5-0.7-0.9-1.2-1.2C47.9,43,47.6,43,47.4,43
			c-0.2,0.1-0.6,0.3-1,0.6c0.6,0.3,1.1,0.8,1.5,1.2C48.3,45.3,48.7,45.8,48.9,46.3z M53.7,55.7c0.1-0.1,0.2-0.1,0.2-0.2
			c0.1-0.1,0.1-0.3,0-0.7c-0.1-0.3-0.2-0.7-0.4-1.1c-0.1-0.3-0.3-0.7-0.6-1c-0.2-0.3-0.4-0.5-0.5-0.5c-0.1,0-0.2,0-0.5,0
			c-0.3,0-0.5,0-0.7-0.1c-0.3-0.1-0.5-0.4-0.9-0.8c-0.3-0.4-0.7-0.9-1.1-1.5c-0.5-0.7-0.8-1.2-0.9-1.6c-0.1-0.3-0.2-0.6-0.2-0.9
			c0-0.1,0-0.1,0.1-0.3c0.2-0.4,0.1-0.7,0-1.1c-0.2-0.3-0.5-0.7-0.8-1c-0.4-0.4-0.7-0.6-1-0.8C46.2,44.1,46,44,45.9,44
			c-0.1,0-0.3,0.2-0.4,0.4c-0.2,0.4-0.4,0.7-0.5,1c-0.1,0.3-0.1,0.6-0.1,0.8c0,0.2,0.2,0.7,0.5,1.3c0.3,0.7,0.6,1.4,1,2.1
			c0.7,1.4,1.6,2.6,2.6,3.8c1,1.2,1.8,2,2.5,2.3c0.1,0.1,0.3,0.1,0.4,0.1C52.1,56,53.6,55.8,53.7,55.7z"/>
	</g>
	<g>
		<path class="st3" d="M50.5,36.5C43,36.5,37,42.5,37,50s6,13.5,13.5,13.5S64,57.5,64,50S58,36.5,50.5,36.5z M50.5,61.4
			c-6.3,0-11.4-5.1-11.4-11.4s5.1-11.4,11.4-11.4c6.3,0,11.4,5.1,11.4,11.4S56.8,61.4,50.5,61.4z"/>
	</g>
</g>
</svg>
