<svg xmlns="http://www.w3.org/2000/svg" viewBox="0 0 27 27"><defs><style>.cls-1{fill:#62afae;}</style></defs><title>Asset 2</title><g id="Layer_2" data-name="Layer 2"><g id="Layer_1-2" data-name="Layer 1"><path class="cls-1" d="M17.39,18.74a4.88,4.88,0,0,0,.64-.38,1.22,1.22,0,0,0,.33-.34,1.78,1.78,0,0,0-.17-1.52,2.81,2.81,0,0,0-1-1.34.73.73,0,0,0-.5-.07,3.93,3.93,0,0,0-.89.36,5.06,5.06,0,0,1,1.08,1.48A5.75,5.75,0,0,1,17.39,18.74Zm-5.53-8.9c.23-.21.4-.37.54-.51A2,2,0,0,0,12.68,9c.14-.25,0-.63-.3-1.13a3.71,3.71,0,0,0-1.23-1.17,1.06,1.06,0,0,0-.78-.16,2.87,2.87,0,0,0-1,.62,6.65,6.65,0,0,1,1.53,1.22A4.83,4.83,0,0,1,11.86,9.85Zm4.83,9.34a.5.5,0,0,0,.2-.19,1.14,1.14,0,0,0,0-.66,5.54,5.54,0,0,0-.36-1.1,4.54,4.54,0,0,0-.59-1,2.66,2.66,0,0,0-.49-.55,1.11,1.11,0,0,0-.49,0,1,1,0,0,1-.69-.09,3.74,3.74,0,0,1-.87-.79,16.23,16.23,0,0,1-1.13-1.48,11.13,11.13,0,0,1-.93-1.56,1.59,1.59,0,0,1-.16-.9.91.91,0,0,1,.08-.27,1.22,1.22,0,0,0,0-1.08,5.38,5.38,0,0,0-.83-1,4.86,4.86,0,0,0-1-.82.86.86,0,0,0-.56-.17c-.12,0-.26.16-.4.4A5.7,5.7,0,0,0,8,9a1.77,1.77,0,0,0-.1.75,6.06,6.06,0,0,0,.45,1.34c.27.65.6,1.35,1,2.1A21.51,21.51,0,0,0,12,17a11.19,11.19,0,0,0,2.48,2.35,1.35,1.35,0,0,0,.44.15A12.14,12.14,0,0,0,16.69,19.19Z"/><path class="cls-1" d="M13.5,0A13.5,13.5,0,1,0,27,13.5,13.5,13.5,0,0,0,13.5,0Zm0,24.89A11.39,11.39,0,1,1,24.89,13.5,11.39,11.39,0,0,1,13.5,24.89Z"/></g></g></svg>